<?xml version="1.0" standalone="no"?>
<!DOCTYPE svg PUBLIC "-//W3C//DTD SVG 1.1//EN" "http://www.w3.org/Graphics/SVG/1.1/DTD/svg11.dtd" >
<svg xmlns="http://www.w3.org/2000/svg">
<metadata>Generated by IcoMoon</metadata>
<defs>
<font id="icomoon" horiz-adv-x="1024">
<font-face units-per-em="1024" ascent="960" descent="-64" />
<missing-glyph horiz-adv-x="1024" />
<glyph unicode="&#x20;" horiz-adv-x="512" d="" />
<glyph unicode="&#xe900;" glyph-name="calendar" d="M972.8 891.733h-119.467v51.2c0 9.438-7.629 17.067-17.067 17.067h-119.467c-9.438 0-17.067-7.629-17.067-17.067v-51.2h-375.467v51.2c0 9.438-7.629 17.067-17.067 17.067h-119.467c-9.438 0-17.067-7.629-17.067-17.067v-51.2h-119.467c-9.438 0-17.067-7.629-17.067-17.067v-921.6c0-9.438 7.629-17.067 17.067-17.067h921.6c9.438 0 17.067 7.629 17.067 17.067v921.6c0 9.438-7.629 17.067-17.067 17.067zM733.867 925.867h85.333v-102.4h-85.333v102.4zM204.8 925.867h85.333v-102.4h-85.333v102.4zM68.267 857.6h102.4v-51.2c0-9.438 7.629-17.067 17.067-17.067h119.467c9.438 0 17.067 7.629 17.067 17.067v51.2h375.467v-51.2c0-9.438 7.629-17.067 17.067-17.067h119.467c9.438 0 17.067 7.629 17.067 17.067v51.2h102.4v-153.6h-887.467v153.6zM68.267-29.867v699.733h887.467v-699.733h-887.467zM648.533 567.467h-460.8v-494.933h648.533v494.933h-187.733zM529.067 533.333h119.467v-119.467h-119.467v119.467zM648.533 260.267h-119.467v119.467h119.467v-119.467zM375.467 379.733h119.467v-119.467h-119.467v119.467zM375.467 533.333h119.467v-119.467h-119.467v119.467zM221.867 533.333h119.467v-119.467h-119.467v119.467zM221.867 379.733h119.467v-119.467h-119.467v119.467zM341.333 106.667h-119.467v119.467h119.467v-119.467zM494.933 106.667h-119.467v119.467h119.467v-119.467zM648.533 106.667h-119.467v119.467h119.467v-119.467zM802.133 106.667h-119.467v119.467h119.467v-119.467zM802.133 260.267h-119.467v119.467h119.467v-119.467zM802.133 533.333v-119.467h-119.467v119.467h119.467z" />
<glyph unicode="&#xe901;" glyph-name="city" d="M1007.4 40h-36.4v195.8c0 9.2-7.4 16.6-16.6 16.6h-18.8v36.4c0 19-15.4 34.2-34.2 34.2h-71.8v213.4c0 9.2-7.4 16.6-16.6 16.6h-21c-6.2 25.2-26 45-51 51v109.2c0 9.2-7.4 16.6-16.6 16.6s-16.6-7.4-16.6-16.6v-109.2c-25.2-6.2-45-26-51-51h-4.2v142.6c0 5.8-3.2 11.4-8.2 14.4l-204 119v43.6c0 9.2-7.4 16.6-16.6 16.6s-16.6-7.4-16.6-16.6v-266.6h-107.2c-9.2 0-16.6-7.4-16.6-16.6v-199.4l-199.8-50c-7.4-1.8-12.6-8.4-12.6-16v-284h-54.4c-9.2 0-16.6-7.4-16.6-16.6s7.4-16.6 16.6-16.6h990.8c9.2 0 16.6 7.4 16.6 16.6s-7.4 16.6-16.6 16.6v0zM759.8 252.2c-9.2 0-16.6-7.4-16.6-16.6v-107.2h-90.6v143.8h126v-20h-18.8zM937.8 110.8h-161.4v37.6h161.4v-37.6zM782.8 305.4h-130.4v143.8h143.8v-130.4c-5.6-3.2-10.2-7.8-13.4-13.4zM652.4 95.2h90.6v-55.2h-90.6v55.2zM776.2 77.6h161.4v-37.6h-161.4v37.6zM937.8 181.4h-161.4v37.6h161.4v-37.6zM902.4 288.8v-36.4h-90.6v36.4c0 0.6 0.4 1.2 1.2 1.2h88.4c0.4-0.2 1-0.6 1-1.2zM671.2 519.8c9.2 0 16.6 7.4 16.6 16.6 0 20.2 16.4 36.4 36.4 36.4s36.4-16.4 36.4-36.4c0-9.2 7.4-16.6 16.6-16.6h18.8v-37.6h-143.8v37.6h19zM440.2 790.6l179.2-104.6v-646h-37.6v620.4c0 9.2-7.4 16.6-16.6 16.6s-16.6-7.4-16.6-16.6v-620.4h-37.6v549.6c0 9.2-7.4 16.6-16.6 16.6h-54.2v184.4zM477.8 219v-37.6h-161.4v37.6h161.4zM316.2 252.2v37.6h161.4v-37.6h-161.4zM477.8 393.8h-161.4v37.6h161.4v-37.6zM477.8 360.6v-37.6h-161.4v37.6h161.4zM316.2 148.4h161.4v-37.6h-161.4v37.6zM477.8 464.6h-161.4v37.6h161.4v-37.6zM316.2 77.6h161.4v-37.6h-161.4v37.6zM477.8 573v-37.6h-161.4v37.6h161.4zM104 311.2l179.2 44.8v-316h-37.6v231c0 9.2-7.4 16.6-16.6 16.6s-16.6-7.4-16.6-16.6v-231h-37.6v213.4c0 9.2-7.4 16.6-16.6 16.6s-16.6-7.4-16.6-16.6v-213.4h-37.6v271.2z" />
<glyph unicode="&#xe902;" glyph-name="clock" d="M512 960c-282.317 0-512-229.683-512-512s229.683-512 512-512 512 229.683 512 512-229.683 512-512 512zM512-29.867c-263.492 0-477.867 214.374-477.867 477.867s214.374 477.867 477.867 477.867 477.867-214.374 477.867-477.867-214.374-477.867-477.867-477.867zM529.067 515.908v173.090c0 9.438-7.646 17.067-17.067 17.067s-17.067-7.629-17.067-17.067v-173.090c-23.876-6.212-42.564-24.9-48.777-48.777h-121.89c-9.421 0-17.067-7.629-17.067-17.067s7.646-17.067 17.067-17.067h121.89c7.629-29.355 34.133-51.2 65.843-51.2 37.649 0 68.267 30.618 68.267 68.267 0 31.727-21.845 58.214-51.2 65.843zM512 415.932c-18.825 0-34.133 15.309-34.133 34.133s15.309 34.133 34.133 34.133 34.133-15.309 34.133-34.133-15.309-34.133-34.133-34.133zM512 791.398c9.421 0 17.067 7.629 17.067 17.067v17.067c0 9.438-7.646 17.067-17.067 17.067s-17.067-7.629-17.067-17.067v-17.067c0-9.438 7.646-17.067 17.067-17.067zM512 108.732c-9.421 0-17.067-7.629-17.067-17.067v-17.067c0-9.438 7.646-17.067 17.067-17.067s17.067 7.629 17.067 17.067v17.067c0 9.438-7.646 17.067-17.067 17.067zM887.467 467.132h-17.067c-9.421 0-17.067-7.629-17.067-17.067s7.646-17.067 17.067-17.067h17.067c9.421 0 17.067 7.629 17.067 17.067s-7.646 17.067-17.067 17.067zM153.6 467.132h-17.067c-9.421 0-17.067-7.629-17.067-17.067s7.646-17.067 17.067-17.067h17.067c9.421 0 17.067 7.629 17.067 17.067s-7.646 17.067-17.067 17.067zM765.423 727.637l-12.066-12.066c-6.673-6.673-6.673-17.459 0-24.132 3.328-3.328 7.697-5.001 12.066-5.001s8.738 1.673 12.066 5.001l12.066 12.066c6.673 6.673 6.673 17.459 0 24.132s-17.459 6.656-24.132 0zM246.511 208.708l-12.066-12.066c-6.673-6.673-6.673-17.459 0-24.132 3.328-3.328 7.697-5.001 12.066-5.001s8.738 1.673 12.066 5.001l12.066 12.066c6.673 6.673 6.673 17.459 0 24.132s-17.476 6.656-24.132 0zM777.489 208.708c-6.673 6.673-17.459 6.673-24.132 0s-6.673-17.459 0-24.132l12.066-12.066c3.328-3.328 7.697-5.001 12.066-5.001s8.738 1.673 12.066 5.001c6.673 6.673 6.673 17.459 0 24.132l-12.066 12.066zM258.577 727.637c-6.673 6.673-17.459 6.673-24.132 0s-6.673-17.459 0-24.132l12.066-12.066c3.328-3.328 7.697-5.001 12.066-5.001s8.738 1.673 12.066 5.001c6.673 6.673 6.673 17.459 0 24.132l-12.066 12.066z" />
<glyph unicode="&#xe903;" glyph-name="down-chevron" d="M970.771 729.867l-458.773-457.277-458.77 457.277-53.229-53.402 511.999-510.332 512.001 510.332z" />
<glyph unicode="&#xe904;" glyph-name="edit" d="M975.219 911.237c-65.054 65.017-170.864 65.017-235.918 0l-668.371-668.371c-0.315-0.315-0.5-0.704-0.778-1.038-0.389-0.445-0.723-0.927-1.075-1.409-0.982-1.372-1.742-2.836-2.317-4.43-0.167-0.482-0.408-0.908-0.537-1.39-0.056-0.185-0.167-0.371-0.222-0.556l-65.517-275.229c-0.297-1.242-0.371-2.502-0.408-3.744 0-0.241-0.074-0.463-0.074-0.704 0.019-2.113 0.482-4.17 1.205-6.153 0.167-0.463 0.352-0.871 0.556-1.316 0.908-1.983 2.039-3.892 3.633-5.486 1.761-1.761 3.837-3.114 6.079-4.040s4.633-1.39 7.024-1.39c1.427 0 2.873 0.167 4.281 0.5l275.229 65.517c0.5 0.111 0.945 0.389 1.427 0.556 0.63 0.204 1.223 0.445 1.835 0.723 1.334 0.612 2.576 1.372 3.725 2.28 0.445 0.352 0.908 0.612 1.334 1.001 0.148 0.148 0.334 0.222 0.482 0.371l668.389 668.389c65.054 65.054 65.054 170.883 0.019 235.918zM949.012 885.030c46.112-46.131 50.042-118.562 12.047-169.345l-181.392 181.392c50.802 37.995 123.232 34.065 169.345-12.047zM857.269 609.801l-183.486 183.486 26.207 26.207 183.486-183.486-26.207-26.207zM91.947 27.965c-7.247 7.247-18.96 7.247-26.207 0l-14.030-14.030 47.336 198.832 81.957 9.1-10.546-94.931c-0.074-0.704 0.185-1.353 0.185-2.039 0-0.704-0.259-1.334-0.185-2.039 0.074-0.612 0.389-1.112 0.519-1.705 0.222-1.075 0.537-2.057 0.927-3.058 0.482-1.205 1.056-2.298 1.761-3.355 0.575-0.853 1.149-1.612 1.853-2.354 0.89-0.945 1.853-1.742 2.91-2.484 0.834-0.575 1.631-1.112 2.558-1.557 1.223-0.575 2.502-0.908 3.837-1.223 0.704-0.167 1.279-0.556 2.002-0.649 0.667-0.074 1.334-0.111 2.020-0.111 0 0 0.019 0 0.019 0s0.019 0 0.019 0h0.019c0 0 0.019 0 0.019 0 0.667 0 1.353 0.037 2.020 0.111l94.931 10.546-9.1-81.957-198.851-47.336 14.030 14.030c7.228 7.228 7.228 18.96 0 26.207zM324.548 129.513l414.752 414.771c7.247 7.247 7.247 18.96 0 26.207s-18.96 7.247-26.207 0l-414.752-414.771-88.462-9.823 9.823 88.462 414.79 414.752c7.247 7.247 7.247 18.96 0 26.207s-18.96 7.247-26.207 0l-414.79-414.752-58.994-6.561 513.075 513.075 183.486-183.486-513.075-513.075 6.561 58.994zM909.683 662.215l-183.486 183.486 26.226 26.226 183.486-183.486-26.226-26.226z" />
<glyph unicode="&#xe905;" glyph-name="home" d="M1015.193 492.748l-503.201 467.252-503.184-467.252c-7.088-6.597-7.509-17.703-0.912-24.808 6.562-7.088 17.703-7.492 24.791-0.912l58.231 54.073v-585.1h842.149v585.118l58.231-54.073c3.369-3.141 7.667-4.684 11.948-4.684 4.72 0 9.404 1.877 12.843 5.597 6.614 7.088 6.193 18.194-0.895 24.791zM406.723-28.91v280.716c0 58.056 47.213 105.269 105.269 105.269s105.269-47.213 105.269-105.269v-280.716h-210.537zM897.976-28.91h-245.627v280.716c0 77.39-62.968 140.358-140.358 140.358s-140.358-62.968-140.358-140.358v-280.716h-245.627v582.609l385.985 358.422 385.985-358.422v-582.609z" />
<glyph unicode="&#xe906;" glyph-name="info" d="M512 960c-282.4 0-512-229.6-512-512s229.6-512 512-512 512 229.6 512 512c0 282.4-229.6 512-512 512zM512-18c-257 0-466 209-466 466s209 466 466 466c257 0 466-209 466-466s-209-466-466-466zM508.6 615c-19 0-34.4-15.4-34.4-34.4v-389.2c0-19 15.4-34.6 34.4-34.6s34.6 15.4 34.6 34.6v389.2c0 19-15.4 34.4-34.6 34.4zM552.6 710.6c0-23.086-18.714-41.8-41.8-41.8s-41.8 18.714-41.8 41.8c0 23.086 18.714 41.8 41.8 41.8s41.8-18.714 41.8-41.8z" />
<glyph unicode="&#xe907;" glyph-name="mail" d="M829.086 249.751c-4.061 0-8.123 1.486-11.293 4.491l-189.994 178.239c-6.637 6.208-6.967 16.675-0.726 23.312 6.241 6.703 16.642 7 23.345 0.726l189.994-178.239c6.637-6.208 6.967-16.675 0.726-23.312-3.269-3.467-7.627-5.217-12.052-5.217zM194.881 249.751c-4.392 0-8.783 1.75-12.052 5.217-6.241 6.637-5.91 17.104 0.726 23.312l190.060 178.239c6.67 6.208 17.137 5.944 23.345-0.726 6.241-6.637 5.91-17.104-0.726-23.312l-190.060-178.239c-3.17-3.005-7.231-4.491-11.293-4.491zM941.451 84.026h-858.903c-45.501 0-82.549 37.015-82.549 82.549v562.883c0 45.534 37.048 82.549 82.549 82.549h858.903c45.501 0 82.549-37.015 82.549-82.549v-562.883c0-45.534-37.048-82.549-82.549-82.549zM82.549 778.987c-27.307 0-49.529-22.222-49.529-49.529v-562.883c0-27.307 22.222-49.529 49.529-49.529h858.903c27.307 0 49.529 22.222 49.529 49.529v562.883c0 27.307-22.222 49.529-49.529 49.529h-858.903zM512 365.055c-21.958 0-43.916 7.297-60.624 21.859l-423.97 369.851c-6.868 5.977-7.594 16.411-1.618 23.312 6.043 6.868 16.444 7.495 23.312 1.585l423.97-369.818c21.099-18.392 56.76-18.392 77.827 0l423.442 369.224c6.835 5.977 17.236 5.316 23.312-1.585 5.977-6.901 5.283-17.302-1.585-23.312l-423.442-369.224c-16.741-14.595-38.666-21.892-60.624-21.892z" />
<glyph unicode="&#xe908;" glyph-name="map" d="M1014.822 938.325c-5.689 3.451-12.781 3.603-18.641 0.512l-313.515-165.983-313.496 165.983c-0.247 0.133-0.531 0.171-0.777 0.284-0.91 0.436-1.839 0.759-2.788 1.043-0.531 0.152-1.043 0.322-1.574 0.436-1.043 0.209-2.105 0.284-3.186 0.322-0.474 0.019-0.948 0.076-1.441 0.057-1.024-0.057-2.029-0.247-3.034-0.474-0.569-0.114-1.138-0.19-1.688-0.36-0.133-0.038-0.265-0.038-0.379-0.076l-341.333-113.778c-7.756-2.579-12.971-9.823-12.971-17.996v-815.407c0-6.087 2.92-11.814 7.889-15.398 3.262-2.332 7.149-3.565 11.074-3.565 2.010 0 4.039 0.322 5.992 0.986l334.62 111.54 315.866-130.067c0.265-0.114 0.569-0.076 0.834-0.171 2.086-0.74 4.21-1.252 6.391-1.252 1.707 0 3.394 0.284 5.044 0.74 0.531 0.152 1.024 0.398 1.555 0.588 0.759 0.284 1.555 0.493 2.276 0.872l322.37 170.667c6.201 3.281 10.088 9.747 10.088 16.763v777.481c0 6.656-3.489 12.819-9.178 16.251zM37.926 794.624l303.407 101.129v-511.848c-8.154-1.479-16.194-3.148-23.969-5.196-10.126-2.693-16.156-13.065-13.464-23.192 2.257-8.495 9.918-14.108 18.318-14.108 1.593 0 3.243 0.209 4.873 0.626 4.551 1.214 9.519 1.82 14.241 2.807v-224.521l-303.407-101.111v775.415zM379.259 350.151c6.087 0.474 11.985 1.252 18.223 1.384 10.468 0.228 18.773 8.894 18.565 19.361-0.228 10.335-8.666 18.565-18.963 18.565-0.133 0-0.284 0-0.417 0-5.879-0.133-11.662-0.455-17.408-0.853v501.969l284.444-150.585v-401.901c-13.54 0.588-27.307 2.181-41.737 4.968-10.316 2.029-20.233-4.722-22.225-15s4.741-20.233 15.019-22.225c16.801-3.262 33.109-4.855 48.962-5.48v-298.117l-284.463 117.134v230.779zM986.074 156.027l-284.444-150.585v296.96c7.054 3.205 11.757 10.411 11.131 18.584-0.55 7.092-5.101 12.781-11.131 15.569v403.437l284.444 150.585v-734.549zM208.593 789.333c-52.281 0-94.815-42.534-94.815-94.815 0-45.796 32.635-84.082 75.852-92.9v-39.841c0-10.487 8.495-18.963 18.963-18.963s18.963 8.476 18.963 18.963v39.841c43.217 8.818 75.852 47.104 75.852 92.9 0 52.281-42.534 94.815-94.815 94.815zM208.593 637.63c-31.365 0-56.889 25.524-56.889 56.889s25.524 56.889 56.889 56.889 56.889-25.524 56.889-56.889-25.524-56.889-56.889-56.889zM854.661 435.238c2.276-0.891 4.608-1.289 6.903-1.289 7.585 0 14.734 4.57 17.673 12.060 8.913 22.737 16.062 48.412 21.295 76.307 1.934 10.278-4.855 20.177-15.151 22.13-10.354 1.707-20.196-4.873-22.13-15.17-4.779-25.562-11.283-48.924-19.323-69.461-3.812-9.728 0.986-20.745 10.733-24.576zM242.821 346.7c-22.888-14.355-43.52-32.332-61.345-53.476-6.751-8.002-5.727-19.968 2.276-26.719 3.565-2.996 7.908-4.456 12.212-4.456 5.404 0 10.752 2.295 14.507 6.732 15.284 18.129 32.939 33.545 52.489 45.777 8.875 5.575 11.548 17.275 5.992 26.15s-17.275 11.567-26.131 5.992zM163.593 234.174c-9.519 4.361-20.783 0.247-25.164-9.273-19.456-42.212-24.273-76.288-24.481-77.729-1.422-10.373 5.822-19.911 16.194-21.333 0.872-0.133 1.764-0.19 2.617-0.19 9.311 0 17.427 6.865 18.773 16.327 0.038 0.303 4.38 30.284 21.333 67.015 4.38 9.538 0.228 20.783-9.273 25.183zM766.54 320.398c2.901 0 5.86 0.664 8.609 2.067 24.5 12.535 46.099 30.322 64.171 52.831 6.561 8.173 5.253 20.12-2.92 26.662-8.154 6.504-20.101 5.234-26.662-2.92-14.715-18.337-32.161-32.73-51.864-42.799-9.33-4.779-13.028-16.194-8.249-25.524 3.375-6.542 10.031-10.316 16.915-10.316zM553.15 363.956c-8.363 3.508-13.255 5.935-13.577 6.106-1.233 0.626-2.541 1.138-3.887 1.479-20.537 5.272-40.77 9.444-60.169 12.402-10.335 1.631-20.025-5.518-21.618-15.872-1.574-10.354 5.537-20.044 15.891-21.618 17.56-2.693 35.897-6.447 54.556-11.188 2.541-1.214 7.396-3.508 14.184-6.334 2.389-1.005 4.873-1.46 7.301-1.46 7.415 0 14.469 4.361 17.503 11.643 4.039 9.709-0.512 20.821-10.183 24.841zM889.799 582.049c0.417-0.019 0.815-0.038 1.233-0.038 9.918 0 18.261 7.699 18.906 17.768 1.176 18.223 1.764 37.509 1.764 57.268 0 6.58-0.057 13.255-0.19 20.063-0.19 10.487-9.292 18.451-19.304 18.622-10.468-0.19-18.811-8.837-18.622-19.304 0.114-6.58 0.19-13.047 0.19-19.38 0-18.963-0.569-37.414-1.688-54.86-0.664-10.449 7.263-19.456 17.711-20.139zM157.26 415.63c3.698-3.698 8.552-5.556 13.407-5.556s9.709 1.858 13.407 5.556l24.519 24.519 24.519-24.519c3.698-3.698 8.552-5.556 13.407-5.556s9.709 1.858 13.407 5.556c7.415 7.415 7.415 19.399 0 26.814l-24.519 24.519 24.519 24.519c7.415 7.415 7.415 19.399 0 26.814s-19.399 7.415-26.814 0l-24.519-24.519-24.519 24.519c-7.415 7.415-19.399 7.415-26.814 0s-7.415-19.399 0-26.814l24.519-24.519-24.519-24.519c-7.415-7.396-7.415-19.399 0-26.814z" />
<glyph unicode="&#xe909;" glyph-name="phone-call" d="M1023.299 117.185c-3.256 24.606-17.461 45.823-38.969 58.205l-252.625 145.452c-30.941 17.815-70.192 12.628-95.447-12.624l-49.759-49.759c-13.241-13.243-34.189-14.415-48.718-2.723-39.228 31.564-77.851 66.302-114.796 103.249-36.945 36.945-71.683 75.567-103.249 114.796-11.693 14.53-10.523 35.477 2.723 48.72l49.757 49.759c25.252 25.25 30.445 64.497 12.626 95.445l-145.452 252.625c-12.385 21.51-33.599 35.713-58.205 38.969-24.609 3.262-48.788-4.945-66.34-22.497l-74.976-74.978c-52.329-52.331-53.17-148.055-2.366-269.541 48.85-116.813 140.013-245.406 256.692-362.089 116.683-116.681 245.275-207.844 362.091-256.694 59.8-25.007 113.352-37.502 158.567-37.5 46.639 0 84.402 13.298 110.975 39.869l74.976 74.978c17.549 17.551 25.75 41.731 22.497 66.338zM715.154 292.093l252.625-145.452c12.493-7.192 20.743-19.515 22.632-33.807 1.588-11.994-1.528-23.804-8.592-33.32l-335.735 191.61 13.635 13.635c14.665 14.665 37.467 17.68 55.436 7.334zM176.832 926.41c14.294-1.891 26.615-10.14 33.807-22.634l145.452-252.625c10.35-17.974 7.334-40.771-7.332-55.434l-12.524-12.524-192.663 334.625c7.876 5.832 17.295 8.999 27.114 8.999 2.037 0 4.091-0.135 6.146-0.407zM902.365-0.672c-41.574-41.574-126.602-39.831-233.282 4.782-112.925 47.223-237.729 135.847-351.429 249.544-113.699 113.699-202.323 238.506-249.546 351.429-44.615 106.682-46.356 191.71-4.782 233.286l55.66 55.662 192.953-335.131-12.94-12.94c-25.246-25.248-27.444-65.216-5.111-92.977 32.31-40.154 67.853-79.671 105.636-117.455 37.788-37.786 77.305-73.328 117.457-105.638 27.756-22.333 67.724-20.137 92.977 5.113l11.806 11.806 336.202-191.878-55.6-55.602z" />
<glyph unicode="&#xe90a;" glyph-name="placeholder" d="M515.338 735.59c-72.166 0-130.906-58.739-130.906-130.906s58.739-130.906 130.906-130.906 130.906 58.739 130.906 130.906-58.739 130.906-130.906 130.906zM515.338 511.181c-51.558 0-93.504 41.946-93.504 93.504s41.946 93.504 93.504 93.504 93.504-41.946 93.504-93.504-41.946-93.504-93.504-93.504zM765.611 854.958c-67.734 67.734-157.797 105.042-253.583 105.042-95.804 0-185.849-37.308-253.583-105.042-125.351-125.333-140.929-361.15-33.736-504.024l287.319-414.933 286.889 414.354c107.623 143.454 92.045 379.271-33.306 504.604zM768.584 372.215l-256.556-370.5-256.968 371.080c-97.225 129.634-83.293 342.599 29.846 455.72 60.665 60.665 141.322 94.084 227.121 94.084s166.456-33.418 227.14-94.084c113.14-113.121 127.072-326.086 29.416-456.3z" />
<glyph unicode="&#xe90b;" glyph-name="plus" d="M1024 481.758h-478.242v478.242h-67.516v-478.242h-478.242v-67.516h478.242v-478.242h67.516v478.242h478.242z" />
<glyph unicode="&#xe90c;" glyph-name="right-chevron" d="M283.533 960l-53.402-53.226 457.281-458.774-457.281-458.774 53.402-53.226 510.334 512z" />
<glyph unicode="&#xe90d;" glyph-name="select-chevrons" d="M851.574 352.99l-339.574-338.317-339.323 338.317-39.462-39.462 378.784-377.528 378.784 377.528zM890.784 582.472l-378.784 377.528-378.784-377.528 39.462-39.462 339.323 338.317 339.574-338.317z" />
<glyph unicode="&#xe90e;" glyph-name="file" d="M768 533.333h-426.667c-9.421 0-17.067-7.629-17.067-17.067s7.646-17.067 17.067-17.067h426.667c9.421 0 17.067 7.629 17.067 17.067s-7.646 17.067-17.067 17.067zM341.333 635.733h170.667c9.421 0 17.067 7.629 17.067 17.067s-7.646 17.067-17.067 17.067h-170.667c-9.421 0-17.067-7.629-17.067-17.067s7.646-17.067 17.067-17.067zM768 396.8h-426.667c-9.421 0-17.067-7.629-17.067-17.067s7.646-17.067 17.067-17.067h426.667c9.421 0 17.067 7.629 17.067 17.067s-7.646 17.067-17.067 17.067zM768 260.267h-426.667c-9.421 0-17.067-7.629-17.067-17.067s7.646-17.067 17.067-17.067h426.667c9.421 0 17.067 7.629 17.067 17.067s-7.646 17.067-17.067 17.067zM768 123.733h-426.667c-9.421 0-17.067-7.629-17.067-17.067s7.646-17.067 17.067-17.067h426.667c9.421 0 17.067 7.629 17.067 17.067s-7.646 17.067-17.067 17.067zM836.267 711.066v248.934h-733.867v-938.667h85.333v-85.333h733.867v689.732l-85.333 85.333zM682.667 816.401l180.668-180.668h-180.668v180.668zM136.533 55.467v870.4h665.6v-180.668l-129.468 129.468h-484.932v-819.2h-51.2zM221.867-29.867v870.4h426.667v-238.933h238.933v-631.467h-665.6z" />
<glyph unicode="&#xe90f;" glyph-name="time" d="M512 960c-282.317 0-512-229.683-512-512s229.683-512 512-512 512 229.683 512 512-229.683 512-512 512zM512-29.867c-263.492 0-477.867 214.374-477.867 477.867s214.374 477.867 477.867 477.867 477.867-214.374 477.867-477.867-214.374-477.867-477.867-477.867zM512 857.6c-9.421 0-17.067-7.629-17.067-17.067v-392.533h-256c-9.421 0-17.067-7.629-17.067-17.067s7.646-17.067 17.067-17.067h273.067c9.421 0 17.067 7.629 17.067 17.067v409.6c0 9.438-7.646 17.067-17.067 17.067z" />
<glyph unicode="&#xe910;" glyph-name="group" d="M810.518 149.482h-235.921v85.561c0 24.536-10.695 47.184-29.359 62.493-15.309 12.373-32.295 25.165-53.475 39.844l-10.276 7.13 6.082 6.082v81.366c-11.953 9.856-18.874 24.536-18.874 40.264v93.32c0 52.217 42.361 94.578 94.578 94.578h20.342c52.217 0 94.578-42.361 94.578-94.578v-93.32c0-15.728-6.92-30.408-18.874-40.264v-80.108c15.309-7.549 75.285-38.586 131.277-84.722 12.792-10.485 19.922-26.213 19.922-43.409v-74.236zM595.568 170.453h193.979v53.266c0 10.905-4.404 20.761-12.373 27.262v0c-60.186 49.701-125.405 81.157-130.228 83.463-5.243 2.307-8.598 7.549-8.598 13.212v95.417l4.823 3.146c8.808 5.872 14.050 15.728 14.050 26.213v93.32c0 40.683-33.134 73.607-73.607 73.607h-20.342c-40.683 0-73.607-33.134-73.607-73.607v-93.32c0-10.695 5.243-20.342 14.050-26.213l4.823-3.146v-91.642c19.503-13.631 35.441-25.794 50.12-37.538 23.487-19.293 37.118-48.023 37.118-78.85v-64.59zM815.761 144.239h-246.406v90.803c0 22.858-10.066 44.248-27.472 58.508-15.099 12.373-32.085 24.955-53.266 39.635l-15.518 10.695 9.017 9.017v76.753c-11.953 10.905-18.874 26.213-18.874 42.78v93.32c0 55.153 44.877 99.821 99.821 99.821h20.342c55.153 0 99.821-44.877 99.821-99.821v-93.32c0-16.357-6.92-31.875-18.874-42.78v-74.865c20.132-10.066 76.333-40.264 129.18-83.883 13.841-11.534 21.81-28.73 21.81-47.394v-79.269zM579.84 154.725h225.435v68.994c0 15.518-6.501 29.988-18.035 39.425-54.943 45.297-113.452 75.704-130.228 84.093l-2.936 1.468v86.19l1.887 1.678c10.695 9.017 16.986 22.229 16.986 36.279v93.32c0 49.281-40.054 89.335-89.335 89.335h-20.342c-49.281 0-89.335-40.054-89.335-89.335v-93.32c0-14.050 6.082-27.262 16.986-36.279l1.887-1.678v-85.98l-3.146-3.146 5.243-3.565c21.39-14.889 38.586-27.681 53.895-40.264 19.922-16.357 31.246-40.473 31.246-66.687v-80.528zM794.79 165.21h-204.464v69.832c0 29.149-12.792 56.411-35.231 74.656-14.47 11.744-30.198 23.697-49.701 37.328l-2.307 1.468v91.642l-2.307 1.468c-10.276 6.711-16.567 18.245-16.567 30.617v93.32c0 43.409 35.441 78.85 78.85 78.85h20.342c43.409 0 78.85-35.441 78.85-78.85v-93.32c0-12.373-6.082-23.907-16.567-30.617l-2.307-1.468v-92.481c0-3.565 2.097-6.92 5.452-8.388 7.34-3.565 71.3-34.811 131.486-84.302 9.017-7.549 14.26-18.874 14.26-31.246v-58.508zM600.811 175.695h183.494v48.023c0 9.227-3.775 17.825-10.485 23.277-60.186 49.491-126.453 81.576-129.18 82.834-6.92 3.146-11.534 10.066-11.534 17.825v98.353l7.13 4.614c7.34 4.823 11.744 13.002 11.744 21.81v93.32c0 37.747-30.617 68.365-68.365 68.365h-20.342c-37.747 0-68.365-30.617-68.365-68.365v-93.32c0-8.808 4.404-16.986 11.744-21.81l7.13-4.614v-91.852c18.664-13.212 33.973-24.745 48.023-36.279 24.745-20.342 39.006-50.539 39.006-82.834v-59.347zM557.402 149.901h-553.837v85.561c0 18.874 8.388 36.908 23.277 49.071 67.106 54.943 137.568 91.223 154.764 99.821v96.885c-14.050 11.114-22.229 28.101-22.229 46.345v109.467c0 60.186 49.071 109.257 109.257 109.257h23.697c60.186 0 109.257-49.071 109.257-109.257v-109.467c0-17.825-8.179-34.811-22.229-46.136v-97.094c16.986-8.388 87.448-44.668 154.764-99.611 14.47-11.534 23.068-29.988 23.068-49.071v-85.77zM24.536 170.872h511.895v64.59c0 12.792-5.662 25.165-15.309 32.924v0c-72.139 59.137-150.57 97.094-153.925 98.562-5.452 2.726-8.598 7.969-8.598 13.841v111.145l4.614 3.146c10.905 7.549 17.615 19.503 17.615 32.295v109.467c0 48.652-39.635 88.287-88.287 88.287h-23.697c-48.652 0-88.287-39.635-88.287-88.287v-109.467c0-13.212 6.501-25.165 17.406-32.295l4.823-3.146v-111.354c0-5.452-3.146-10.695-7.759-13.421l-0.839-0.419c-3.355-1.678-81.576-39.425-153.925-98.562-9.856-8.179-15.518-20.132-15.518-32.924v-64.38zM562.644 144.659h-564.322v90.803c0 20.551 9.227 39.844 25.165 53.056 63.961 52.427 130.018 87.448 152.877 98.982v91.223c-14.050 12.163-22.229 29.778-22.229 48.862v109.467c0 63.122 51.378 114.5 114.5 114.5h23.697c63.122 0 114.5-51.378 114.5-114.5v-109.467c0-18.454-7.969-36.070-22.229-48.652v-91.432c22.858-11.534 88.916-46.555 152.877-98.982 15.518-12.582 24.955-32.505 24.955-53.266v-90.593zM8.808 155.144h543.351v80.318c0 17.615-7.969 34.392-21.18 45.087-66.058 54.104-134.422 89.545-153.715 99.191l-2.936 1.468v102.757l1.887 1.678c12.792 10.695 20.342 26.004 20.342 42.151v109.467c0 57.46-46.765 104.015-104.015 104.015h-23.697c-57.46 0-104.015-46.765-104.015-104.015v-109.467c0-16.567 7.34-32.085 20.132-42.361l1.887-1.678v-102.757l-2.936-1.468c-19.503-9.647-87.867-45.087-153.925-99.191-13.212-11.114-21.18-27.472-21.18-44.877v-80.318zM541.674 165.629h-522.381v69.832c0 14.26 6.291 27.681 17.615 36.908 72.139 59.137 150.15 97.094 154.764 99.191l0.629 0.419c3.146 1.887 5.243 5.452 5.243 9.017v108.628l-2.307 1.468c-12.373 7.969-19.712 21.6-19.712 36.699v109.467c0 51.588 41.941 93.529 93.529 93.529h23.697c51.588 0 93.529-41.941 93.529-93.529v-109.467c0-14.47-7.34-28.101-19.922-36.699l-2.307-1.468v-108.419c0-3.984 2.097-7.34 5.662-9.227 3.146-1.468 81.995-39.635 154.764-99.191 10.905-8.598 17.196-22.439 17.196-36.908v-70.252zM29.778 176.115h501.41v59.347c0 11.324-5.033 22.019-13.212 28.73-71.93 58.928-149.731 96.465-152.877 98.143-7.34 3.565-11.534 10.695-11.534 18.664v114.081l6.92 4.614c9.647 6.501 15.309 16.986 15.309 28.101v109.467c0 45.716-37.328 83.044-83.044 83.044h-23.697c-45.716 0-83.044-37.328-83.044-83.044v-109.467c0-11.324 5.662-21.81 14.889-27.891l7.13-4.614v-114.29c0-7.13-3.984-14.26-10.276-18.035l-1.258-0.629c-3.355-1.468-80.947-39.215-152.877-97.933-8.598-7.13-13.631-17.825-13.631-28.94v-59.347zM1021.693 150.111h-193.14v74.236c0 22.019-9.856 42.78-27.052 57.040-10.695 8.598-24.745 19.503-38.586 29.149l-4.404 3.146v64.17c-9.437 8.598-14.889 20.551-14.889 33.134v75.075c0 42.99 35.021 77.801 77.801 77.801h16.147c42.99 0 77.801-35.021 77.801-77.801v-74.865c0-12.792-5.452-24.955-14.889-33.343v-62.702c20.342-10.276 63.541-34.182 104.224-67.526v0c10.695-8.808 16.986-22.229 16.986-35.86v-61.654zM849.733 171.082h151.199v40.683c0 7.549-3.565 14.889-9.437 19.712-41.941 34.392-86.819 58.299-104.224 66.897-4.614 2.307-7.549 7.13-7.549 12.373v77.801l4.614 3.146c6.291 4.194 10.276 11.744 10.276 19.503v74.865c0 31.456-25.584 56.831-56.831 56.831h-16.147c-31.456 0-56.831-25.584-56.831-56.831v-74.865c0-7.759 3.775-14.889 10.485-19.503l4.404-3.146v-63.751c12.792-9.227 25.375-19.083 35.231-26.843l0.21-0.21c22.019-18.245 34.602-45.087 34.602-73.398v-53.266zM1026.936 144.868h-203.626v79.479c0 20.551-9.227 39.844-25.165 53.056-10.485 8.388-24.536 19.293-38.167 28.94l-6.711 4.614v64.59c-9.437 9.437-14.889 22.229-14.889 35.441v75.075c0 45.716 37.328 83.044 83.044 83.044h16.147c45.716 0 83.044-37.328 83.044-83.044v-74.865c0-13.421-5.452-26.213-14.889-35.65v-57.25c22.648-11.744 63.541-34.811 102.337-66.687 11.953-9.647 18.874-24.745 18.874-40.054v-66.687zM834.005 155.354h182.655v56.411c0 12.163-5.662 24.116-15.099 31.875-39.635 32.505-81.786 55.782-103.386 66.897l-2.936 1.468v68.155l1.678 1.468c8.388 7.34 13.212 18.035 13.212 29.359v75.075c0 40.054-32.505 72.559-72.559 72.559h-16.147c-40.054 0-72.559-32.505-72.559-72.559v-74.865c0-11.114 4.823-21.6 13.212-29.359l1.678-1.468v-63.751l2.307-1.468c14.050-9.856 28.101-20.761 38.796-29.359 18.454-15.309 28.94-37.538 28.94-61.234v-69.203zM1005.965 165.839h-161.684v58.508c0 26.843-11.953 52.007-32.714 69.203l-0.21 0.21c-9.437 7.549-22.019 17.406-35.021 26.633l-2.097 1.468v63.751l-2.307 1.468c-8.179 5.662-12.792 14.26-12.792 23.907v75.075c0 34.182 27.891 62.073 62.073 62.073h16.147c34.182 0 62.073-27.891 62.073-62.073v-74.865c0-9.437-4.823-18.664-12.582-23.697l-2.307-1.468v-74.865c0-3.355 1.887-6.291 4.614-7.759 17.615-8.808 62.912-32.924 105.273-67.526 7.13-5.872 11.324-14.68 11.324-23.697v-46.345zM854.976 176.324h140.713v35.441c0 6.082-2.726 11.953-7.34 15.728-41.522 33.973-85.98 57.669-103.386 66.267-6.501 3.146-10.485 9.856-10.485 16.986v80.528l6.92 4.614c4.823 3.355 7.969 9.017 7.969 15.099v75.075c0 28.52-23.068 51.588-51.588 51.588h-16.147c-28.52 0-51.588-23.068-51.588-51.588v-74.865c0-6.082 2.936-11.534 8.179-15.309l6.711-4.614v-63.751c12.373-8.808 24.116-18.245 33.343-25.375l0.21-0.21c23.277-19.293 36.489-47.394 36.489-77.382v-48.233z" />
<glyph unicode="&#xe911;" glyph-name="up-chevron" d="M512 729.867l-512-510.331 53.229-53.402 458.771 457.278 458.774-457.278 53.226 53.402z" />
<glyph unicode="&#xe912;" glyph-name="left-double-chevron" d="M669.668 906.774l-53.402 53.226-510.334-512 510.334-512 53.402 53.226-457.278 458.774zM918.065 906.774l-53.402 53.226-510.334-512 510.334-512 53.402 53.226-457.278 458.774z" />
<glyph unicode="&#xe913;" glyph-name="users" d="M947.49 165.547l-166.793 72.243c-3.925 1.963-8.277 6.758-12.015 13.158l111.36 0.085c1.946-0.188 47.855-4.386 84.668 11.435 13.943 6.007 24.32 17.869 28.484 32.546 4.198 14.814 1.536 30.498-7.27 43.059-31.829 45.295-106.121 163.652-108.442 283.699-0.051 2.065-6.775 206.217-208.384 207.872-29.679-0.239-57.122-5.274-82.091-14.558-5.444 13.875-13.466 28.348-25.395 41.967-35.038 40.004-91.921 60.279-169.079 60.279s-134.042-20.275-169.097-60.245c-40.414-46.097-36.659-101.99-35.703-111.36v-90.778c-10.923-12.442-17.067-28.365-17.067-44.8v-68.267c0-20.77 9.438-40.141 25.549-53.060 15.633-61.901 48.35-108.544 59.785-123.511v-56.474c0-16.521-9.011-31.676-23.501-39.595l-152.252-83.046c-49.51-27.034-80.247-78.814-80.247-135.202v-72.329h1024v63.095c0 52.77-29.321 100.181-76.51 123.785zM750.933 12.8h-716.8v38.195c0 43.878 23.927 84.207 62.447 105.199l152.252 83.046c25.481 13.909 41.301 40.585 41.301 69.581v68.591l-3.977 4.745c-0.41 0.495-42.24 51.098-58.197 120.576l-1.553 6.758-5.82 3.755c-9.882 6.383-15.787 17.084-15.787 28.621v68.267c0 9.574 4.062 18.5 11.435 25.173l5.632 5.069v106.291l-0.154 2.236c-0.051 0.461-5.854 47.77 27.392 85.692 28.279 32.256 76.544 48.606 143.428 48.606 66.645 0 114.807-16.23 143.121-48.265 14.080-15.906 21.163-33.673 24.695-48.93 0.273-1.195 0.529-2.372 0.768-3.55 0.239-1.212 0.495-2.423 0.683-3.584 0.222-1.331 0.41-2.594 0.597-3.857 0.137-0.905 0.273-1.826 0.375-2.697 0.256-2.116 0.461-4.164 0.597-6.059 0.017-0.154 0.017-0.29 0.017-0.444 0.119-1.843 0.205-3.584 0.256-5.171 0-0.307 0-0.563 0.017-0.87 0.034-1.417 0.034-2.765 0.017-3.942 0-0.171 0-0.341 0-0.512-0.068-4.011-0.341-6.4-0.341-6.451l-0.137-108.493 5.632-5.086c7.373-6.656 11.435-15.582 11.435-25.156v-68.267c0-14.899-9.762-27.938-24.269-32.41l-8.499-2.611-2.731-8.448c-11.418-35.516-27.682-68.318-48.367-97.502-5.069-7.185-10.001-13.551-14.285-18.415l-4.25-4.847v-70.4c0-4.318 0.427-8.55 1.092-12.715 0.137-0.887 0.375-1.741 0.546-2.628 0.666-3.43 1.553-6.793 2.645-10.069 0.256-0.768 0.529-1.502 0.819-2.27 1.331-3.567 2.884-7.014 4.693-10.325 0.205-0.375 0.393-0.768 0.597-1.143 2.475-4.369 5.325-8.516 8.602-12.339l3.891-4.796h0.666c5.854-5.769 12.578-10.786 20.224-14.609l163.038-81.51c40.875-20.412 66.253-61.474 66.253-107.162v-34.867zM989.867 12.8h-204.8v34.867c0 58.692-32.614 111.445-85.094 137.694l-117.043 58.539c2.884 6.588 3.26 14.131 0.734 21.402-4.181 12.032-15.104 19.797-27.819 19.797h-37.837c-0.785 1.382-1.297 2.901-1.929 4.369-0.853 1.963-1.86 3.891-2.423 5.956-1.041 3.789-1.655 7.748-1.655 11.81v57.702c3.908 4.779 8.021 10.223 12.271 16.23 21.146 29.867 38.093 63.113 50.415 98.97 24.081 11.042 39.714 34.85 39.714 61.73v68.267c0 16.435-6.144 32.358-17.067 44.8v90.778c0.444 4.267 1.399 18.244-1.434 36.506 21.982 8.636 46.609 13.090 73.216 13.312 167.953-1.382 174.080-167.441 174.251-174.438 2.509-129.417 80.998-254.754 114.637-302.626 2.884-4.096 3.755-9.25 2.372-14.114-0.785-2.799-3.038-7.885-9.131-10.496-28.672-12.339-67.567-8.841-69.564-8.755h-117.47c-10.974 0-20.975-5.581-26.761-14.916-5.769-9.301-6.315-20.668-1.468-30.43 5.342-10.769 14.78-25.156 30.293-32.887l166.349-72.055c35.311-17.835 57.242-53.436 57.242-93.047v-28.962z" />
<glyph unicode="&#xe914;" glyph-name="worldwide" d="M802.253 869.461l0.836 0.546-22.579 13.926c-1.331 0.819-2.731 1.502-4.062 2.321-7.407 4.471-14.933 8.755-22.579 12.868-3.874 2.082-7.799 4.045-11.725 6.025-5.751 2.918-11.571 5.7-17.442 8.397-3.465 1.587-6.912 3.209-10.394 4.71-9.131 3.942-18.364 7.646-27.75 11.059-1.929 0.7-3.891 1.297-5.837 1.98-8.209 2.867-16.521 5.53-24.9 7.987-2.679 0.785-5.359 1.553-8.055 2.287-9.284 2.56-18.671 4.898-28.16 6.929-0.905 0.188-1.775 0.427-2.679 0.614-10.496 2.202-21.111 4.011-31.829 5.547-2.355 0.341-4.745 0.597-7.1 0.905-8.38 1.075-16.811 1.963-25.31 2.628-2.867 0.222-5.717 0.478-8.585 0.649-10.633 0.717-21.316 1.161-32.102 1.161-11.657 0-23.177-0.529-34.645-1.297-3.004-0.205-5.99-0.427-8.994-0.683-10.769-0.905-21.47-2.065-32.051-3.652-1.058-0.154-2.116-0.29-3.174-0.444-10.65-1.655-21.163-3.738-31.573-6.042-3.447-0.751-6.878-1.553-10.308-2.389-9.591-2.321-19.081-4.864-28.45-7.714-2.97-0.905-5.905-1.894-8.841-2.85-8.397-2.731-16.708-5.683-24.9-8.841-3.755-1.434-7.509-2.901-11.23-4.437-9.421-3.874-18.739-7.936-27.87-12.356-3.004-1.451-5.956-3.072-8.943-4.591-7.134-3.618-14.165-7.39-21.094-11.332-3.465-1.963-6.912-3.908-10.342-5.956-8.67-5.205-17.186-10.633-25.515-16.316-1.143-0.785-2.355-1.434-3.482-2.236l-9.301-6.451 0.085-0.375c-127.966-93.133-211.371-243.985-211.371-414.037 0-282.317 229.683-512 512-512s512 229.683 512 512c0 174.609-87.927 329.011-221.747 421.461zM257.519 852.173c5.513 3.482 11.093 6.844 16.725 10.086 3.123 1.809 6.212 3.669 9.387 5.41 7.919 4.335 15.957 8.38 24.081 12.237 3.516 1.673 7.066 3.226 10.633 4.813 5.956 2.645 11.947 5.154 17.988 7.561 3.328 1.331 6.639 2.714 10.018 3.959 8.636 3.209 17.374 6.144 26.18 8.823 3.226 0.99 6.519 1.86 9.779 2.782 6.844 1.929 13.722 3.721 20.668 5.342 3.106 0.734 6.212 1.502 9.335 2.167 9.54 2.031 19.149 3.806 28.826 5.257 2.202 0.324 4.437 0.546 6.639 0.853 8.158 1.092 16.367 1.98 24.61 2.662 2.867 0.239 5.751 0.478 8.636 0.666 10.291 0.614 20.599 1.075 30.976 1.075 9.028 0 18.039-0.307 27.017-0.819 2.577-0.137 5.12-0.393 7.68-0.58 6.468-0.478 12.937-1.024 19.371-1.758 2.85-0.324 5.683-0.717 8.516-1.092 6.229-0.819 12.425-1.741 18.603-2.816 2.748-0.478 5.478-0.956 8.209-1.468 6.434-1.229 12.834-2.611 19.2-4.096 2.355-0.546 4.727-1.058 7.066-1.638 7.851-1.963 15.65-4.113 23.381-6.468 0.785-0.239 1.587-0.427 2.372-0.666 8.26-2.56 16.418-5.393 24.525-8.38 3.243-1.212 6.417-2.526 9.626-3.806 4.71-1.86 9.387-3.755 14.046-5.769 4.028-1.758 8.021-3.567 11.998-5.427 3.584-1.673 7.134-3.396 10.684-5.154 2.594-1.263 5.188-2.611 7.765-3.959-65.229-26.146-105.745-58.18-151.091-117.18-6.434-8.346-9.694-18.569-9.404-28.774-3.908 9.421-9.643 16.589-17.289 21.606-15.804 10.377-36.489 9.643-63.198-2.27l-4.864-0.546c-34.236-3.823-53.094-5.939-54.801-43.179-0.87-18.842 9.233-37.444 25.737-47.377 4.181-2.509 8.567-4.335 13.039-5.444 0.478-1.621 1.229-3.277 2.338-4.949l6.878-9.506 10.974 1.826c9.387 1.587 17.271 1.929 22.613 1.775-0.802-7.578 0.529-15.326 3.942-22.238 4.745-9.591 12.902-16.589 22.972-19.695 9.626-2.97 10.462-5.854 11.622-9.83 5.478-18.859 17.937-32.802 34.185-38.212 15.531-5.205 32.785-1.843 47.411 9.131 8.772 6.639 13.739 5.257 32.905-4.011 12.51-6.042 28.092-13.585 48.265-16.179 3.174-0.393 5.069-1.348 5.769-2.082 13.875-14.575 24.525-32.7 34.816-50.227 15.77-26.846 30.669-52.224 56.303-65.519 20.053-10.428-2.406-69.291-13.175-97.57-2.167-5.7-4.198-11.008-5.888-15.753-26.010-20.036-41.899-42.786-57.276-64.802-13.773-19.712-28.006-40.107-50.074-59.085-33.331-28.689-61.525-45.875-94.259-57.515-5.376-1.894-8.875 1.297-10.138 2.782-1.195 1.399-3.686 5.205-1.024 9.967 33.673 60.279 72.619 145.289 22.204 187.017-49.425 40.892-67.925 100.267-47.172 151.228 8.823 21.641-1.024 45.909-22.818 57.31-1.86 2.27-3.191 12.186-4.062 18.756-1.929 14.421-4.318 32.358-14.985 48.009-4.437 6.485-12.39 12.339-17.869 15.002-20.838 10.206-40.841 13.124-60.177 15.923-15.394 2.253-29.952 4.369-44.8 10.052-56.542 21.692-96.785 113.425-126.174 180.429-4.198 9.591-8.243 18.79-12.134 27.409 2.031 1.297 4.096 2.611 6.161 3.925zM512-29.867c-263.492 0-477.867 214.374-477.867 477.867 0 154.914 74.155 292.796 188.774 380.16 3.021-6.775 6.11-13.773 9.318-21.077 33.57-76.544 75.349-171.793 145.203-198.588 18.381-7.049 35.533-9.557 52.105-11.947 17.51-2.543 34.048-4.949 50.125-12.834 1.297-0.631 3.977-2.714 4.659-3.567 6.093-8.943 7.748-21.299 9.335-33.246 2.202-16.486 4.693-35.174 21.385-43.998 5.427-2.884 10.172-8.687 7.731-14.677-26.505-65.058-4.13-139.793 57.020-190.413 15.667-12.971 23.142-48.503-30.242-144.077-8.789-15.735-6.912-34.833 4.762-48.657 8.482-10.018 20.514-15.445 32.99-15.445 4.881 0 9.83 0.836 14.66 2.543 36.949 13.141 68.369 32.222 105.079 63.812 25.344 21.777 40.823 43.947 55.808 65.399 15.121 21.658 29.423 42.121 52.855 59.375 3.413 2.492 5.939 5.888 7.287 9.813 1.843 5.393 4.267 11.742 6.929 18.739 17.545 46.012 44.066 115.558-2.97 140.015-16.913 8.789-28.809 29.047-42.615 52.514-10.752 18.313-22.955 39.066-39.526 56.508-6.417 6.741-15.462 11.025-26.112 12.407-14.677 1.877-26.402 7.561-37.769 13.056-18.722 9.062-42.052 20.326-68.284 0.58-3.959-2.987-9.95-6.076-16.094-4.062-5.461 1.826-9.916 7.424-12.203 15.343-3.311 11.452-10.223 25.515-34.338 32.956-1.058 0.341-1.877 1.075-2.441 2.236-0.751 1.519-0.836 3.396-0.051 5.547 3.226 8.789 1.894 17.664-3.652 24.371-6.093 7.373-16.964 11.162-32.444 11.401-0.597 2.679-1.963 5.393-4.489 8.038l-10.359 9.472-11.639-6.861c-3.021-1.792-6.434-1.57-10.138 0.683-5.734 3.43-9.54 10.257-9.25 16.572 0.171 3.908 0.427 6.127 0.649 7.407 4.181 1.229 14.165 2.355 23.859 3.43l10.359 1.178 2.509 1.161c15.241 7.083 27.443 9.233 32.631 5.871 2.099-1.382 8.858-8.004 8.090-35.43l-0.427-15.155 14.985-2.219c19.473-2.918 33.911 0.887 42.906 11.213 9.301 10.684 10.991 26.539 4.966 47.121-0.87 2.987-0.102 6.656 1.963 9.335 47.223 61.44 86.852 89.719 162.27 115.763 131.942-85.18 219.563-233.387 219.563-401.766 0-263.492-214.374-477.867-477.867-477.867z" />
<glyph unicode="&#xe915;" glyph-name="key" d="M731.429 960c-161.317 0-292.571-131.255-292.571-292.571 0-60.069 18.249-115.931 49.408-162.45l-482.907-482.907c-7.15-7.15-7.15-18.706 0-25.856 3.566-3.566 8.247-5.358 12.928-5.358s9.362 1.792 12.928 5.358l78.501 78.501 133.358-133.358c3.566-3.566 8.247-5.358 12.928-5.358s9.362 1.792 12.928 5.358c7.15 7.15 7.15 18.706 0 25.856l-133.358 133.358 65.573 65.573 96.786-96.786c3.566-3.566 8.247-5.358 12.928-5.358s9.362 1.792 12.928 5.358c7.15 7.15 7.15 18.706 0 25.856l-96.786 96.786 65.573 65.573 133.358-133.358c3.566-3.566 8.247-5.358 12.928-5.358s9.362 1.792 12.928 5.358c7.15 7.15 7.15 18.706 0 25.856l-133.358 133.358 192.402 192.402c53.687-61.714 132.571-100.974 220.599-100.974 161.317 0 292.571 131.255 292.571 292.571s-131.255 292.571-292.571 292.571zM731.429 411.429c-141.166 0-256 114.834-256 256s114.834 256 256 256 256-114.834 256-256-114.834-256-256-256z" />
<glyph unicode="&#xe916;" glyph-name="ticket" d="M906.891 691.474l-11.168-11.168c-20.913-20.913-36.125-26.963-67.811-26.963-64.067 0-110.57 46.502-110.57 110.57 0 31.686 6.050 46.897 26.963 67.811l11.168 11.168-117.109 117.109-638.365-638.365 117.109-117.109 11.168 11.168c20.913 20.913 36.125 26.963 67.811 26.963 64.067 0 110.57-46.502 110.57-110.57 0-31.686-6.050-46.897-26.963-67.811l-11.168-11.168 117.109-117.109 638.365 638.365-117.109 117.109zM312.754 53.567c18.828 22.446 25.494 44.070 25.494 78.52 0 81.047-61.113 142.161-142.161 142.161-34.45 0-56.075-6.666-78.536-25.494l-72.881 72.881 372.556 372.556 52.015-52.015 22.335 22.335-52.015 52.015 198.804 198.804 72.881-72.897c-18.828-22.446-25.494-44.070-25.494-78.52 0-81.047 61.113-142.161 142.161-142.161 34.45 0 56.075 6.666 78.536 25.494l72.881-72.881-198.804-198.804-52.015 52.015-22.335-22.335 52.015-52.015-372.556-372.556-72.881 72.897zM564.015 547.386l-63.183 63.183 22.335 22.335 63.183-63.183-22.335-22.335zM674.585 436.817l-63.183 63.183 22.335 22.335 63.183-63.183-22.335-22.335z" />
<glyph unicode="&#xe917;" glyph-name="like" d="M1022.306 640.139c-14.947 164.519-131.395 283.881-277.126 283.881-97.089 0-185.985-52.247-236.006-135.983-49.568 84.82-134.821 136.003-230.354 136.003-145.712 0-262.179-119.362-277.106-283.881-1.182-7.267-6.026-45.512 8.705-107.881 21.23-89.96 70.266-171.786 141.773-236.577l356.747-323.741 362.871 323.721c71.507 64.811 120.544 146.618 141.773 236.597 14.731 62.349 9.886 100.594 8.724 107.861zM975.239 541.298c-19.378-82.161-64.299-157.016-129.78-216.332l-336.285-300.030-330.515 299.951c-65.599 59.435-110.5 134.27-129.898 216.431-13.943 59.021-8.212 92.362-8.192 92.579l0.295 1.989c12.801 144.136 112.863 248.768 237.956 248.768 92.303 0 173.558-56.717 212.118-147.996l18.138-42.991 18.138 42.991c37.949 89.881 123.498 147.977 217.987 147.977 125.073 0 225.155-104.631 238.212-250.638 0.039-0.315 5.77-33.676-8.173-92.697z" />
<glyph unicode="&#xe918;" glyph-name="man-walking" d="M399.32 865.112c0-52.405-42.483-94.888-94.888-94.888s-94.888 42.483-94.888 94.888c0 52.405 42.483 94.888 94.888 94.888s94.888-42.483 94.888-94.888zM903.413 46.703c-112.68 170.008-243.151 389.436-264.896 426.996-1.977 5.931-3.954 13.838-7.907 19.768-15.815 29.653-29.653 57.328-45.467 86.981l55.351 55.351c19.768-39.537 39.537-77.097 59.305-116.633 31.629-63.259 128.494-7.907 96.865 55.351-17.792 35.583-39.537 104.772-73.143 142.332l185.822 185.822-51.398 51.398-209.544-205.591c-65.236 5.931-128.494 9.884-193.73 15.815-1.977 0-3.954 0-3.954 0-53.375 13.838-116.633-23.722-128.494-79.073-35.583-79.073-88.958-140.355-175.938-166.054-69.189-19.768-39.537-126.517 29.653-106.749 86.981 25.699 148.263 75.12 195.707 140.355 9.884-17.792 19.768-35.583 29.653-51.398l-397.344-399.32 51.398-51.398 381.529 381.529c5.931-11.861 13.838-23.722 19.768-35.583-59.305-41.514-110.703-88.958-156.17-146.286-11.861-15.815-13.838-31.629-9.884-45.467 0-5.931 0-9.884 1.977-17.792 17.792-69.189 35.583-136.402 51.398-205.591 17.792-73.143 134.425-51.398 114.656 21.745-15.815 65.236-33.606 130.471-49.421 195.707 41.514 49.421 90.934 90.934 146.286 122.564 13.838 7.907 21.745 17.792 25.699 29.653 77.097-116.633 152.216-278.734 229.313-377.575 45.467-59.305 138.378 13.838 92.911 73.143z" />
<glyph unicode="&#xe919;" glyph-name="hourglass" d="M921.6-29.867h-51.2v68.267h-85.333v174.455c0 46.080-22.903 88.883-61.252 114.449l-181.043 120.695 181.043 120.695c38.349 25.566 61.252 68.369 61.252 114.449v174.455h85.333v68.267h51.2c9.421 0 17.067 7.629 17.067 17.067s-7.646 17.067-17.067 17.067h-819.2c-9.421 0-17.067-7.629-17.067-17.067s7.646-17.067 17.067-17.067h51.2v-68.267h85.333v-174.455c0-46.080 22.903-88.883 61.252-114.449l181.043-120.695-181.043-120.695c-38.349-25.566-61.252-68.369-61.252-114.449v-174.455h-85.333v-68.267h-51.2c-9.421 0-17.067-7.629-17.067-17.067s7.646-17.067 17.067-17.067h819.2c9.421 0 17.067 7.629 17.067 17.067s-7.646 17.067-17.067 17.067zM187.733 891.733v34.133h648.533v-34.133h-648.533zM319.113 597.094c-28.826 19.234-46.046 51.405-46.046 86.050v174.455h477.867v-174.455c0-34.645-17.22-66.816-46.046-86.050l-192.887-128.58-192.887 128.58zM273.067 212.855c0 34.645 17.22 66.816 46.046 86.050l192.887 128.58 192.887-128.58c28.826-19.234 46.046-51.405 46.046-86.050v-174.455h-477.867v174.455zM187.733 4.267h648.533v-34.133h-648.533v34.133zM356.983 653.892c-9.796 6.537-15.65 17.476-15.65 29.252v37.922c0 9.438-7.646 17.067-17.067 17.067s-17.067-7.629-17.067-17.067v-37.922c0-23.228 11.537-44.783 30.857-57.651l79.155-52.77c2.901-1.929 6.195-2.867 9.455-2.867 5.513 0 10.923 2.662 14.217 7.595 5.222 7.851 3.106 18.432-4.727 23.671l-79.172 52.77zM685.943 255.829l-79.155 52.77c-7.851 5.239-18.432 3.123-23.671-4.727-5.222-7.851-3.106-18.432 4.727-23.671l79.155-52.77c9.813-6.537 15.667-17.459 15.667-29.252v-37.922c0-9.438 7.646-17.067 17.067-17.067s17.067 7.629 17.067 17.067v37.922c0 23.245-11.537 44.783-30.857 57.651z" />
<glyph unicode="&#xe91a;" glyph-name="open-exit-door" d="M413.806 960v-74.639h-237.259v-873.627l237.259-0.195v-75.539l433.198 77.809 0.448 867.841-433.646 78.35zM485.656 482.279c14.549 0 26.344-15.348 26.344-34.279 0-18.935-11.793-34.279-26.344-34.279s-26.344 15.344-26.344 34.279c-0.002 18.931 11.795 34.279 26.344 34.279zM246.99 82.119v732.798h166.815v-732.932l-166.815 0.135z" />
<glyph unicode="&#xe91b;" glyph-name="repeat" d="M33.868 457.961c11.017 0 19.922 8.905 19.922 19.922 0 120.828 98.316 219.144 219.144 219.144h478.132v-178.582l272.934 198.505-272.934 198.505v-178.582h-478.132c-142.802 0-258.988-116.186-258.988-258.988 0-11.017 8.905-19.922 19.922-19.922zM790.911 837.2l165.354-120.25-165.354-120.25v240.501zM990.132 438.039c-11.017 0-19.922-8.905-19.922-19.922 0-120.828-98.316-219.144-219.144-219.144h-478.132v178.582l-272.934-198.505 272.934-198.505v178.582h478.132c142.802 0 258.988 116.186 258.988 258.988 0 11.017-8.905 19.922-19.922 19.922zM233.089 58.8l-165.354 120.25 165.354 120.25v-240.501z" />
<glyph unicode="&#xe91c;" glyph-name="garbage" d="M512 74.847c9.58 0 17.356 7.758 17.356 17.356v572.746c0 9.598-7.775 17.356-17.356 17.356s-17.356-7.758-17.356-17.356v-572.746c0-9.598 7.775-17.356 17.356-17.356zM338.441 74.847c9.58 0 17.356 7.758 17.356 17.356v572.746c0 9.598-7.775 17.356-17.356 17.356s-17.356-7.758-17.356-17.356v-572.746c0-9.598 7.775-17.356 17.356-17.356zM685.559 74.847c9.58 0 17.356 7.758 17.356 17.356v572.746c0 9.598-7.775 17.356-17.356 17.356s-17.356-7.758-17.356-17.356v-572.746c0-9.598 7.775-17.356 17.356-17.356zM911.186 855.864h-243.747c-1.909 21.695-8.591 58.281-31.466 81.764-14.475 14.839-32.837 22.372-54.567 22.372h-173.542c-21.73 0-40.092-7.532-54.567-22.372-22.875-23.483-29.557-60.069-31.466-81.764h-209.017c-9.58 0-17.356-7.758-17.356-17.356s7.775-17.356 17.356-17.356h35.423l33.237-798.737c0.642-29.887 19.248-86.415 85.183-86.415h490.687c65.935 0 84.541 56.528 85.166 86.051l33.254 799.102h35.423c9.58 0 17.356 7.758 17.356 17.356s-7.775 17.356-17.356 17.356zM378.22 913.469c7.775 7.949 17.477 11.819 29.644 11.819h173.542c12.167 0 21.868-3.87 29.644-11.819 13.972-14.284 19.577-39.415 21.521-57.604h-275.855c1.944 18.189 7.55 43.32 21.504 57.604zM807.815 23.144c-0.104-5.363-2.499-52.432-50.471-52.432h-490.687c-47.451 0-50.297 47.156-50.488 52.797l-33.202 797.644h658.050l-33.202-798.008z" />
<glyph unicode="&#xe91d;" glyph-name="save" d="M834.121 960h-823.672v-1024h1003.102v844.57l-179.43 179.43zM741.878 918.204v-292.571h-501.551v292.571h501.551zM198.531-22.204v397.061h606.041v-397.061h-606.041zM971.755-22.204h-125.388v438.857h-689.633v-438.857h-104.49v940.408h146.286v-334.367h585.143v334.367h33.144l154.937-154.937v-785.471zM282.122 270.367h146.286c11.557 0 20.898 9.341 20.898 20.898s-9.341 20.898-20.898 20.898h-146.286c-11.557 0-20.898-9.341-20.898-20.898s9.341-20.898 20.898-20.898zM491.102 228.571h-208.98c-11.557 0-20.898-9.341-20.898-20.898s9.341-20.898 20.898-20.898h208.98c11.557 0 20.898 9.341 20.898 20.898s-9.341 20.898-20.898 20.898zM538.958 222.511c-3.783-3.95-6.060-9.404-6.060-14.838s2.278-10.867 6.060-14.838c3.95-3.762 9.174-6.060 14.838-6.060 5.433 0 10.867 2.299 14.838 6.060 3.762 3.971 6.060 9.404 6.060 14.838s-2.299 10.888-6.060 14.838c-7.732 7.732-21.943 7.732-29.675 0zM700.082 876.408h-125.388v-208.98h125.388v208.98zM658.286 709.224h-41.796v125.388h41.796v-125.388z" />
<glyph unicode="&#xe91e;" glyph-name="history" d="M555.008 906.96c-254.192 0-460.992-206.784-460.96-459.664-0.192-4.016-2.512-70.96 16.544-143.056l-62.096 36.192c-15.424 8.96-35.072 3.76-44.128-11.632-8.928-15.36-3.744-35.12 11.632-44.080l145.52-84.832c0.304-0.16 0.608-0.208 0.896-0.352 1.552-0.832 3.136-1.44 4.816-2.016 1.136-0.4 2.24-0.816 3.376-1.088 1.392-0.304 2.768-0.4 4.192-0.528 0.992-0.096 1.984-0.4 2.976-0.4 0.56 0 1.088 0.192 1.664 0.224 0.544 0.016 1.008-0.112 1.552-0.064 0.8 0.080 1.52 0.416 2.304 0.544 1.552 0.272 3.024 0.608 4.512 1.088 1.248 0.416 2.48 0.912 3.68 1.488 1.344 0.64 2.608 1.344 3.856 2.176 1.136 0.736 2.224 1.536 3.248 2.4 1.136 0.96 2.144 2 3.152 3.12 0.944 1.040 1.76 2.128 2.544 3.28 0.432 0.64 1.008 1.104 1.392 1.76 0.288 0.496 0.288 1.072 0.528 1.568 0.432 0.88 1.104 1.648 1.488 2.592l57.888 143.328c6.672 16.512-1.296 35.312-17.792 41.984-16.528 6.624-35.312-1.312-41.984-17.824l-29.728-73.6c-19.84 66.352-17.584 134.528-17.52 136.4 0 218.624 177.872 396.48 396.464 396.48 218.608 0 396.464-177.856 396.464-396.48 0-218.592-177.856-396.448-396.464-396.448-17.824 0-32.256-14.448-32.256-32.256s14.416-32.256 32.256-32.256c254.208 0 460.992 206.784 460.992 460.96-0.032 254.208-206.816 460.992-461.008 460.992zM542.656 383.968c3.248-1.344 6.672-1.824 10.144-2.064 0.72-0.048 1.424-0.432 2.144-0.432 3.776 0 7.44 0.864 10.944 2.144 0.976 0.352 1.888 0.864 2.832 1.328 2.672 1.28 5.136 2.912 7.408 4.912 0.496 0.432 1.152 0.592 1.648 1.088l201.392 201.392c12.608 12.608 12.608 33.008 0 45.616-12.592 12.608-32.992 12.608-45.616 0l-186.112-186.096-167.024 69.952c-16.528 6.896-35.344-0.848-42.24-17.296-6.88-16.432 0.88-35.328 17.28-42.208l187.008-78.304c0.064-0.016 0.128-0.016 0.192-0.032z" />
<glyph unicode="&#xe91f;" glyph-name="handshake" d="M690.196 651.186l-258.979 89.332c-24.535 8.388-52.005 6.71-75.492-4.613l-13.001-6.291c-17.615-8.598-38.375-9.856-56.829-3.145l-22.228 7.969c-1.048 0.629-2.097 1.258-3.145 1.678l-132.53 45.085c-3.145 1.048-6.71 0.839-9.646-0.629s-5.242-3.984-6.291-7.13l-111.35-324.824c-2.307-6.501 1.258-13.63 7.759-15.937l132.74-45.505c1.468-0.629 2.726-0.839 4.194-0.839 1.887 0 3.775 0.419 5.452 1.258 2.936 1.468 5.242 3.984 6.291 7.13l107.156 312.452 13.421-4.823c24.745-8.807 52.635-7.13 76.331 4.404l13.001 6.291c17.405 8.598 37.956 9.856 56.199 3.565l249.333-85.977c-1.887-10.904-7.13-28.939-20.76-38.375-12.163-8.388-29.777-8.807-52.005-1.048l-108.834 37.117c-3.355 1.048-6.92 0.839-10.066-0.839s-5.242-4.613-6.291-7.969c-0.21-0.629-16.357-60.184-66.684-87.025-31.874-17.195-71.298-17.824-117.222-2.097-6.501 2.307-13.63-1.258-15.937-7.759s1.258-13.63 7.759-15.937c24.535-8.388 47.811-12.582 69.411-12.582 24.745 0 47.392 5.452 67.943 16.566 44.876 24.115 66.475 68.152 74.653 89.961l96.671-33.133c30.406-10.485 55.361-9.017 74.653 4.194 31.036 21.389 32.503 65.426 32.713 67.314 0.21 5.452-3.355 10.485-8.388 12.163zM137.638 415.065l-109.044 37.326 103.172 300.919 106.108-36.278c0.839-0.419 1.678-0.839 2.516-1.258l0.419-0.21-103.172-300.499zM1022.78 465.183l-151.403 307.629c-1.468 2.936-3.984 5.242-7.13 6.291s-6.71 0.839-9.646-0.629l-126.029-61.652c-6.291-3.145-8.807-10.485-5.872-16.776l146.79-299.87-49.279-45.085c-41.73-38.375-88.913-70.459-139.87-95.413l-241.364-118.061c-6.71-3.355-14.26-3.775-21.389-1.258s-12.792 7.549-16.147 14.26c-3.355 6.71-3.775 14.26-1.258 21.389s7.549 12.792 14.26 16.147l134.837 66.055c6.291 3.145 8.807 10.485 5.872 16.776-3.145 6.291-10.695 8.807-16.776 5.872l-198.376-97.091c-13.84-6.71-30.826-1.048-37.536 12.792s-1.048 30.616 12.792 37.536l193.762 94.784c6.291 3.145 8.807 10.485 5.872 16.776-3.145 6.291-10.695 8.807-16.776 5.872l-217.458-106.318c-13.84-6.71-30.826-1.048-37.536 12.792s-1.048 30.826 12.792 37.536l23.906 11.743 173.421 84.928c6.291 3.145 8.807 10.485 5.872 16.776-3.145 6.291-10.695 8.807-16.776 5.872l-173.421-84.928c-6.71-3.355-14.26-3.775-21.389-1.258s-12.792 7.549-16.147 14.26c-3.355 6.71-3.775 14.26-1.258 21.389s7.549 12.792 14.26 16.147l92.058 45.085c6.291 3.145 8.807 10.485 5.872 16.776-3.145 6.291-10.695 8.807-16.776 5.872l-92.058-45.085c-12.792-6.291-22.438-17.195-27.051-30.616s-3.775-27.89 2.516-40.682c4.823-10.066 12.792-18.034 22.438-23.277-15.937-15.727-20.76-40.262-10.485-61.232 9.227-18.873 28.1-29.777 47.811-29.777 2.307 0 4.613 0.21 6.92 0.419-1.678-10.485-0.419-21.599 4.613-32.084 9.227-18.873 28.1-29.777 47.811-29.777 7.759 0 15.727 1.678 23.277 5.452l22.857 11.324c-1.048-9.856 0.629-19.712 5.242-28.729 6.291-12.792 17.195-22.438 30.616-27.051 5.662-1.887 11.533-2.936 17.405-2.936 7.969 0 15.937 1.887 23.277 5.452l241.364 118.061c53.264 26.003 102.124 59.555 145.741 99.607l54.732 50.328 124.352 60.813c6.291 3.145 8.807 10.485 5.872 16.776zM890.669 414.016l-139.87 285.82 103.592 50.538 139.66-285.82-103.382-50.538z" />
<glyph unicode="&#xe920;" glyph-name="extra-bed" horiz-adv-x="1231" d="M0 572.21v-595.133c0-22.495 18.583-41.077 41.077-41.077h41.077c22.495 0 41.077 18.583 41.077 41.077v266.758h984.879v-266.758c0-22.495 18.583-41.077 41.077-41.077h41.077c22.495 0 41.077 18.583 41.077 41.077v451.606c0 79.954-63.572 143.771-143.771 143.771h-642.078c3.912 8.802 6.113 18.338 6.113 28.852v24.695c0 38.877-30.808 69.685-69.685 69.685h-147.927c-38.877 0-69.685-30.808-69.685-69.685v-24.695c0-10.269 2.201-20.050 6.113-28.852h-47.19zM205.142 601.062v24.695c0 16.382 12.225 28.852 28.852 28.852h147.683c16.382 0 28.852-12.225 28.852-28.852v-24.695c0-16.382-12.225-28.852-28.852-28.852h-147.683c-16.382 0-28.852 12.47-28.852 28.852zM102.693 284.913c-12.225 0-20.539-8.313-20.539-20.539v-287.297h-41.077v554.055h246.22v-246.22h-184.604zM1190.266-22.923h-41.077v287.297c0 12.225-8.313 20.539-20.539 20.539h-800.275v246.22h759.198c57.459 0 102.693-45.234 102.693-102.693v-451.362z" />
<glyph unicode="&#xe921;" glyph-name="error" d="M512 960c-282.309 0-512-229.671-512-512s229.691-512 512-512 512 229.671 512 512-229.691 512-512 512zM512-24.615c-260.588 0-472.615 212.027-472.615 472.615s212.027 472.615 472.615 472.615 472.615-212.027 472.615-472.615-212.027-472.615-472.615-472.615zM703.153 639.153c-7.7 7.7-20.145 7.7-27.845 0l-163.308-163.308-163.308 163.308c-7.7 7.7-20.145 7.7-27.845 0s-7.7-20.145 0-27.845l163.308-163.308-163.308-163.308c-7.7-7.7-7.7-20.145 0-27.845 3.84-3.84 8.881-5.77 13.922-5.77s10.082 1.93 13.922 5.77l163.308 163.308 163.308-163.308c3.84-3.84 8.881-5.77 13.922-5.77s10.082 1.93 13.922 5.77c7.7 7.7 7.7 20.145 0 27.845l-163.308 163.308 163.308 163.308c7.7 7.7 7.7 20.145 0 27.845z" />
<glyph unicode="&#xe922;" glyph-name="checked" d="M970.607 802.67l-602.559-602.554-314.655 314.65-53.393-53.393 368.048-368.043 655.952 655.947z" />
<glyph unicode="&#xe923;" glyph-name="circular-arrow" d="M511.985-18.929c-199.406 0-376.863 126.613-441.628 315.075-4.811 13.921 2.616 29.135 16.567 33.886 13.891 4.811 29.105-2.586 33.886-16.567 57.368-166.903 214.59-278.994 391.205-278.994 228.060 0 413.575 185.515 413.575 413.545 0 14.733 11.967 26.73 26.7 26.73s26.67-11.967 26.67-26.73c-0.030-257.466-209.478-466.944-466.974-466.944zM71.74 421.315c-14.703 0-26.67 11.907-26.67 26.67 0 257.436 209.478 466.914 466.914 466.914 199.346 0 376.803-126.553 441.628-314.954 4.781-13.921-2.616-29.135-16.567-33.946-13.981-4.751-29.135 2.646-33.916 16.567-57.398 166.903-214.59 278.994-391.175 278.994-228.030 0-413.575-185.575-413.575-413.605 0.030-14.703-11.907-26.64-26.64-26.64zM927.334 559.144c-2.616 0-5.322 0.421-7.968 1.233l-185.304 58.030c-14.041 4.42-21.859 19.393-17.469 33.465 4.39 14.041 19.423 21.859 33.405 17.499l161.732-50.693 60.766 152.321c5.472 13.681 21.017 20.386 34.668 14.853 13.681-5.472 20.386-20.957 14.913-34.637l-69.997-175.292c-4.119-10.313-14.102-16.778-24.745-16.778zM26.67 108.135c-3.277 0-6.645 0.631-9.862 1.954-13.681 5.472-20.356 20.957-14.883 34.637l69.966 175.292c5.172 12.989 19.423 19.784 32.743 15.575l185.304-58.030c14.071-4.39 21.859-19.363 17.469-33.405-4.39-14.102-19.393-21.919-33.405-17.499l-161.702 50.633-60.826-152.321c-4.179-10.433-14.222-16.838-24.805-16.838z" />
<glyph unicode="&#xe924;" glyph-name="locked" d="M815.407 578.598v106.439c0 151.609-136.116 274.963-303.407 274.963s-303.407-123.354-303.407-274.963v-106.439c-64.493-11.112-113.778-67.319-113.778-134.959v-370.574c0-75.567 61.497-137.064 137.083-137.064h560.204c75.586 0 137.083 61.497 137.083 137.083v370.574c0 67.622-49.285 123.828-113.778 134.94zM246.519 685.037c0 130.712 119.087 237.037 265.481 237.037s265.481-106.325 265.481-237.037v-104.296h-530.963v104.296zM891.259 73.083c0-54.67-44.487-99.157-99.157-99.157h-560.204c-54.67 0-99.157 44.487-99.157 99.157v370.574c0 54.67 44.487 99.157 99.157 99.157h560.204c54.67 0 99.157-44.487 99.157-99.157v-370.574zM512 429.037c-41.832 0-75.852-34.020-75.852-75.852v-113.778c0-41.832 34.020-75.852 75.852-75.852s75.852 34.020 75.852 75.852v113.778c0 41.832-34.020 75.852-75.852 75.852zM549.926 239.407c0-20.916-17.010-37.926-37.926-37.926s-37.926 17.010-37.926 37.926v113.778c0 20.916 17.010 37.926 37.926 37.926s37.926-17.010 37.926-37.926v-113.778z" />
<glyph unicode="&#xe925;" glyph-name="left-chevron" d="M793.867 906.774l-53.402 53.226-510.334-512 510.334-512 53.402 53.226-457.278 458.774z" />
<glyph unicode="&#xe926;" glyph-name="question-mark" d="M512 231.385c-11.815 0-19.692-7.877-19.692-19.692v-39.385c0-11.815 7.877-19.692 19.692-19.692s19.692 7.877 19.692 19.692v39.385c0 11.815-7.877 19.692-19.692 19.692zM513.969 782.769c0 0-1.969 0-1.969 0-41.354 0-80.738-15.754-110.277-45.292-31.508-29.538-47.262-68.923-47.262-112.246 0-11.815 7.877-19.692 19.692-19.692s19.692 7.877 19.692 19.692c0 31.508 11.815 61.046 35.446 84.677 23.631 21.662 53.169 35.446 84.677 33.477 63.015 0 116.185-55.138 116.185-116.185 0-41.354-19.692-78.769-55.138-100.431-53.169-33.477-82.708-92.554-82.708-159.508v-57.108c0-11.815 7.877-19.692 19.692-19.692s19.692 7.877 19.692 19.692v55.138c0 51.2 25.6 100.431 64.985 126.031 45.292 29.538 72.862 80.738 72.862 133.908-1.969 86.646-70.892 155.569-155.569 157.538z" />
<glyph unicode="&#xe927;" d="M510.499-18.956c-198.194 0-375.367 126.123-441.431 315.308-6.006 15.015 3.003 30.029 18.018 33.032 15.015 6.006 30.029-3.003 33.032-18.018 57.056-168.164 213.208-279.273 390.381-279.273 228.223 0 414.405 186.182 414.405 414.405 0 15.015 12.012 27.026 27.026 27.026s27.026-12.012 27.026-27.026c0-255.249-210.205-465.455-468.457-465.455z" />
<glyph unicode="&#xe928;" d="M72.070 422.475c-15.015 0-27.026 12.012-27.026 27.026 0 258.252 210.205 465.455 465.455 465.455 198.194 0 375.367-126.123 441.431-315.308 6.006-15.015-3.003-30.029-18.018-33.032-15.015-6.006-30.029 3.003-33.032 18.018-57.056 165.161-213.208 276.27-390.381 276.27-228.223 0-411.402-183.179-411.402-411.402 0-15.015-12.012-27.026-27.026-27.026z" />
<glyph unicode="&#xe929;" d="M924.903 560.61c-3.003 0-6.006 0-9.009 0l-186.182 57.056c-15.015 3.003-21.021 18.018-18.018 33.032s18.018 21.021 33.032 18.018l162.158-51.050 60.059 153.15c6.006 15.015 21.021 21.021 36.035 15.015 18.018-6.006 24.023-21.021 18.018-33.032l-69.067-174.17c-6.006-12.012-15.015-18.018-27.026-18.018z" />
<glyph unicode="&#xe92a;" d="M27.026 110.17c-3.003 0-6.006 0-9.009 3.003-15.015 6.006-21.021 21.021-15.015 36.035l69.067 174.17c6.006 12.012 18.018 21.021 33.032 15.015l186.182-57.056c15.015-3.003 21.021-18.018 18.018-33.032s-18.018-21.021-33.032-18.018l-162.158 51.050-60.059-153.15c-6.006-12.012-18.018-18.018-27.026-18.018z" />
<glyph unicode="&#xe92b;" d="M633.619 362.416l-66.065 33.032c-6.006 3.003-9.009 9.009-9.009 15.015v24.023c3.003 3.003 3.003 3.003 6.006 6.006 9.009 12.012 15.015 24.023 21.021 39.038 9.009 3.003 15.015 15.015 15.015 24.023v27.026c0 6.006-3.003 12.012-6.006 18.018v36.035c0 3.003 3.003 27.026-15.015 45.044-15.015 15.015-36.035 24.023-66.065 24.023s-54.053-9.009-66.065-24.023c-15.015-18.018-15.015-42.041-15.015-45.044v-36.035c-3.003-6.006-6.006-12.012-6.006-18.018v-27.026c0-9.009 3.003-15.015 9.009-21.021 6.006-24.023 18.018-42.041 24.023-48.047v-21.021c0-6.006-3.003-12.012-9.009-15.015l-60.059-33.032c-21.021-12.012-33.032-30.029-33.032-54.053v-21.021c0-33.032 102.1-42.041 156.152-42.041s156.152 9.009 156.152 42.041v21.021c-3.003 18.018-15.015 39.038-36.035 51.050z" />
<glyph unicode="&#xe92c;" glyph-name="cancel" d="M463.056 451.424l-453.248-453.248c-12.592-12.592-12.592-32.992 0-45.584 6.288-6.304 14.544-9.44 22.784-9.44 8.256 0 16.496 3.136 22.784 9.44l456.656 456.656 456.656-456.656c6.304-6.304 14.544-9.44 22.784-9.44s16.496 3.136 22.784 9.44c12.592 12.592 12.592 32.992 0 45.584l-453.232 453.248 453.536 453.568c12.592 12.592 12.592 32.992 0 45.584-12.592 12.576-32.992 12.576-45.568 0l-456.944-456.976-456.992 456.96c-12.592 12.576-32.976 12.576-45.568 0-12.592-12.592-12.592-32.992 0-45.584l453.568-453.552z" />
<glyph unicode="&#xe92d;" glyph-name="credit-card" d="M952.030 823.467h-880.060c-39.68 0-71.97-32.29-71.97-71.97v-606.993c0-39.68 32.29-71.97 71.97-71.97h880.060c39.68 0 71.97 32.29 71.97 71.97v606.993c0 39.68-32.29 71.97-71.97 71.97zM989.867 144.503c0-20.855-16.964-37.837-37.837-37.837h-880.060c-20.873 0-37.837 16.981-37.837 37.837v606.993c0 20.855 16.964 37.837 37.837 37.837h880.060c20.873 0 37.837-16.981 37.837-37.837v-606.993zM273.067 328.533h-153.6c-9.438 0-17.067-7.646-17.067-17.067s7.629-17.067 17.067-17.067h153.6c9.438 0 17.067 7.646 17.067 17.067s-7.629 17.067-17.067 17.067zM494.933 328.533h-153.6c-9.438 0-17.067-7.646-17.067-17.067s7.629-17.067 17.067-17.067h153.6c9.438 0 17.067 7.646 17.067 17.067s-7.629 17.067-17.067 17.067zM136.533 243.2h-17.067c-9.438 0-17.067-7.646-17.067-17.067s7.629-17.067 17.067-17.067h17.067c9.438 0 17.067 7.646 17.067 17.067s-7.629 17.067-17.067 17.067zM238.933 243.2h-34.133c-9.438 0-17.067-7.646-17.067-17.067s7.629-17.067 17.067-17.067h34.133c9.438 0 17.067 7.646 17.067 17.067s-7.629 17.067-17.067 17.067zM324.267 243.2h-17.067c-9.438 0-17.067-7.646-17.067-17.067s7.629-17.067 17.067-17.067h17.067c9.438 0 17.067 7.646 17.067 17.067s-7.629 17.067-17.067 17.067zM426.667 243.2h-34.133c-9.438 0-17.067-7.646-17.067-17.067s7.629-17.067 17.067-17.067h34.133c9.438 0 17.067 7.646 17.067 17.067s-7.629 17.067-17.067 17.067zM482.816 238.251c-3.089-3.243-4.949-7.68-4.949-12.117s1.86-8.875 4.949-12.117c3.226-3.072 7.68-4.949 12.117-4.949s8.875 1.877 12.117 4.949c3.072 3.243 4.949 7.68 4.949 12.117s-1.877 8.875-4.949 12.117c-6.485 6.315-18.108 6.315-24.235 0zM819.2 396.8c-21.777 0-42.138-5.956-59.733-16.162-17.596 10.206-37.956 16.162-59.733 16.162-65.86 0-119.467-53.589-119.467-119.467s53.606-119.467 119.467-119.467c21.777 0 42.138 5.956 59.733 16.162 17.596-10.206 37.956-16.162 59.733-16.162 65.86 0 119.467 53.589 119.467 119.467s-53.606 119.467-119.467 119.467zM785.067 277.333c0-23.791-9.83-45.295-25.6-60.791-15.77 15.497-25.6 37.001-25.6 60.791s9.83 45.295 25.6 60.791c15.77-15.497 25.6-37.001 25.6-60.791zM614.4 277.333c0 47.053 38.281 85.333 85.333 85.333 10.769 0 20.992-2.219 30.498-5.888-18.893-21.129-30.498-48.93-30.498-79.445s11.605-58.317 30.498-79.445c-9.506-3.669-19.729-5.888-30.498-5.888-47.053 0-85.333 38.281-85.333 85.333zM819.2 192c-10.769 0-20.992 2.219-30.498 5.888 18.893 21.129 30.498 48.93 30.498 79.445s-11.605 58.317-30.498 79.445c9.506 3.669 19.729 5.888 30.498 5.888 47.053 0 85.333-38.281 85.333-85.333s-38.281-85.333-85.333-85.333zM140.885 448h230.229c21.214 0 38.485 17.271 38.485 38.485v161.963c0 21.214-17.271 38.485-38.485 38.485h-230.229c-21.214 0-38.485-17.271-38.485-38.485v-161.963c0-21.214 17.271-38.485 38.485-38.485zM204.8 550.4h-68.267v34.133h68.267v-34.133zM136.533 486.485v29.781h68.267v-29.781c0-1.485 0.273-2.901 0.444-4.352h-64.358c-2.406 0-4.352 1.946-4.352 4.352zM375.467 550.4h-68.267v29.781c0 2.406 1.946 4.352 4.352 4.352h59.563c1.485 0 2.901 0.273 4.352 0.444v-34.577zM371.115 482.133h-64.358c0.171 1.451 0.444 2.867 0.444 4.352v29.781h68.267v-29.781c0-2.406-1.946-4.352-4.352-4.352zM371.115 652.8c2.406 0 4.352-1.946 4.352-4.352v-25.429c0-2.406-1.946-4.352-4.352-4.352h-59.563c-21.214 0-38.485-17.271-38.485-38.485v-93.696c0-2.406-1.946-4.352-4.352-4.352h-25.429c-2.406 0-4.352 1.946-4.352 4.352v161.963c0 2.406 1.946 4.352 4.352 4.352h127.829zM140.885 652.8h64.358c-0.171-1.451-0.444-2.867-0.444-4.352v-29.781h-68.267v29.781c0 2.406 1.946 4.352 4.352 4.352z" />
<glyph unicode="&#xe92e;" glyph-name="diamond" d="M1023.761 615.787c0.119 0.7 0.188 1.383 0.222 2.1 0.034 0.836 0.017 1.639-0.051 2.475-0.068 0.717-0.171 1.4-0.341 2.1-0.188 0.819-0.444 1.605-0.751 2.39-0.154 0.41-0.188 0.836-0.376 1.229-0.137 0.29-0.376 0.512-0.529 0.802s-0.222 0.597-0.393 0.888l-170.706 273.13c-0.785 1.246-1.707 2.373-2.748 3.363-0.017 0.017-0.034 0.017-0.051 0.034-1.468 1.383-3.209 2.373-5.070 3.158-0.239 0.102-0.393 0.307-0.649 0.41-0.188 0.068-0.393 0.034-0.58 0.085-1.724 0.58-3.499 0.973-5.36 0.973h-648.685c-1.844 0-3.602-0.393-5.292-0.956-0.188-0.051-0.376-0.017-0.546-0.085-0.256-0.085-0.41-0.29-0.649-0.393-1.775-0.734-3.448-1.69-4.899-2.987-0.085-0.085-0.205-0.137-0.29-0.205-1.058-0.99-1.997-2.134-2.783-3.38l-170.706-273.13c-0.171-0.273-0.239-0.597-0.393-0.888s-0.393-0.512-0.529-0.802c-0.188-0.393-0.222-0.819-0.393-1.229-0.307-0.785-0.563-1.57-0.751-2.39-0.154-0.7-0.273-1.4-0.341-2.117-0.119-0.836-0.137-1.656-0.102-2.475 0.034-0.717 0.102-1.4 0.222-2.1 0.137-0.819 0.358-1.622 0.632-2.424 0.222-0.666 0.461-1.314 0.768-1.963 0.154-0.307 0.205-0.649 0.376-0.956 0.273-0.495 0.683-0.871 0.99-1.332 0.239-0.358 0.376-0.751 0.666-1.093l494.861-614.304c0.034-0.051 0.068-0.085 0.102-0.119l0.085-0.119c0.051-0.068 0.137-0.085 0.188-0.154 1.4-1.69 3.141-2.97 5.036-3.995 0.512-0.273 0.99-0.512 1.519-0.734 2.066-0.871 4.251-1.485 6.538-1.485 1.946 0 3.909 0.341 5.855 1.041 0.29 0.102 0.478 0.341 0.768 0.461 0.871 0.358 1.553 0.939 2.339 1.434 1.297 0.819 2.509 1.673 3.517 2.783 0.239 0.256 0.597 0.376 0.819 0.649l495.049 614.543c0.273 0.341 0.41 0.751 0.666 1.093 0.324 0.461 0.717 0.836 0.99 1.332 0.171 0.307 0.222 0.649 0.376 0.956 0.307 0.649 0.546 1.28 0.768 1.963 0.239 0.802 0.478 1.588 0.615 2.424zM547.883 874.766h263.895l-82.963-222.687-180.932 222.687zM698.053 635.777h-372.089l186.036 228.969 186.053-228.969zM293.991 650.594l-81.922 224.172h264.066l-182.144-224.172zM710.020 601.636l-201.007-539.535-197.149 539.535h398.156zM840.234 853.377l136.002-217.617h-217.070l81.069 217.617zM183.612 853.155l79.43-217.378h-215.278l135.848 217.378zM275.52 601.636l185.029-506.384-407.92 506.384h222.891zM552.918 82.176l193.53 519.46h224.923l-418.453-519.46z" />
<glyph unicode="&#xe92f;" glyph-name="document" d="M664.132 960h-553.199v-1024h802.133v775.066l-248.934 248.934zM674.133 901.734l180.668-180.668h-180.668v180.668zM145.067-29.867v955.733h494.933v-238.933h238.933v-716.8h-733.867zM281.6 669.867h153.6c9.421 0 17.067 7.629 17.067 17.067s-7.646 17.067-17.067 17.067h-153.6c-9.421 0-17.067-7.629-17.067-17.067s7.646-17.067 17.067-17.067zM571.733 328.533h-290.133c-9.421 0-17.067-7.629-17.067-17.067s7.646-17.067 17.067-17.067h290.133c9.421 0 17.067 7.629 17.067 17.067s-7.646 17.067-17.067 17.067zM742.4 448h-119.467c-9.421 0-17.067-7.629-17.067-17.067s7.646-17.067 17.067-17.067h119.467c9.421 0 17.067 7.629 17.067 17.067s-7.646 17.067-17.067 17.067zM281.6 533.333h85.333c9.421 0 17.067 7.629 17.067 17.067s-7.646 17.067-17.067 17.067h-85.333c-9.421 0-17.067-7.629-17.067-17.067s7.646-17.067 17.067-17.067zM537.6 533.333h119.467c9.421 0 17.067 7.629 17.067 17.067s-7.646 17.067-17.067 17.067h-119.467c-9.421 0-17.067-7.629-17.067-17.067s7.646-17.067 17.067-17.067zM435.2 550.4c0-4.437 1.877-8.875 4.949-12.117 3.243-3.072 7.68-4.949 12.117-4.949s8.875 1.877 12.117 4.949c3.072 3.243 4.949 7.68 4.949 12.117 0 4.454-1.877 8.892-4.949 12.117-6.315 6.315-17.749 6.315-24.235 0-3.072-3.226-4.949-7.663-4.949-12.117zM366.933 448c-9.421 0-17.067-7.629-17.067-17.067s7.646-17.067 17.067-17.067h170.667c9.421 0 17.067 7.629 17.067 17.067s-7.646 17.067-17.067 17.067h-170.667zM281.6 413.867c4.437 0 8.875 1.877 12.117 4.949 3.072 3.243 4.949 7.68 4.949 12.117 0 4.454-1.877 8.892-4.949 12.117-6.315 6.315-17.92 6.315-24.235 0-3.072-3.226-4.949-7.492-4.949-12.117 0-4.437 1.877-8.875 4.949-12.117 3.243-3.072 7.68-4.949 12.117-4.949zM742.4 209.067h-119.467c-9.421 0-17.067-7.629-17.067-17.067s7.646-17.067 17.067-17.067h119.467c9.421 0 17.067 7.629 17.067 17.067s-7.646 17.067-17.067 17.067zM537.6 209.067h-170.667c-9.421 0-17.067-7.629-17.067-17.067s7.646-17.067 17.067-17.067h170.667c9.421 0 17.067 7.629 17.067 17.067s-7.646 17.067-17.067 17.067zM269.483 204.117c-3.072-3.072-4.949-7.492-4.949-12.117 0-4.608 1.707-8.875 4.949-12.117 3.243-3.072 7.68-4.949 12.117-4.949 4.608 0 8.875 1.877 12.117 4.949 3.072 3.243 4.949 7.68 4.949 12.117 0 4.625-1.877 8.892-4.949 11.947-6.315 6.485-17.749 6.485-24.235 0.171zM730.283 562.517c-3.072-3.226-4.949-7.663-4.949-12.117 0-4.437 1.877-8.875 4.949-12.117 3.243-3.072 7.68-4.949 12.117-4.949s8.875 1.877 12.117 4.949c3.243 3.243 4.949 7.68 4.949 12.117 0 4.454-1.707 8.892-4.949 12.117-6.485 6.315-17.749 6.315-24.235 0zM669.184 299.349c3.072 3.243 4.949 7.68 4.949 12.117 0 4.454-1.877 8.892-4.949 12.117-6.485 6.315-17.92 6.315-24.235 0-3.072-3.226-4.949-7.663-4.949-12.117 0-4.437 1.877-8.875 4.949-12.117 3.243-3.226 7.509-4.949 12.117-4.949s8.875 1.877 12.117 4.949zM730.283 323.584c-3.072-3.226-4.949-7.663-4.949-12.117 0-4.437 1.877-8.875 4.949-12.117 3.243-3.072 7.509-4.949 12.117-4.949s8.875 1.877 12.117 4.949c3.072 3.243 4.949 7.68 4.949 12.117 0 4.454-1.877 8.892-4.949 12.117-6.315 6.315-17.92 6.315-24.235 0z" />
<glyph unicode="&#xe930;" glyph-name="download" d="M350.364 468.601c-6.786 6.786-17.755 6.786-24.541 0s-6.786-17.755 0-24.541l173.195-173.195c3.228-3.28 7.637-5.103 12.253-5.103 0.121 0 0.243 0.069 0.364 0.069s0.226-0.069 0.364-0.069c5.78 0 10.639 3.003 13.798 7.342l171.668 171.668c6.786 6.786 6.786 17.755 0 24.541s-17.755 6.786-24.541 0l-143.568-143.568v616.899c0 9.598-7.758 17.356-17.356 17.356s-17.356-7.758-17.356-17.356v-618.357l-144.28 144.315zM633.492 682.305c-9.598 0-17.356-7.758-17.356-17.356s7.758-17.356 17.356-17.356h225.627v-676.881h-694.237v676.881h225.627c9.598 0 17.356 7.758 17.356 17.356s-7.758 17.356-17.356 17.356h-260.339v-746.305h763.661v746.305h-260.339z" />
<glyph unicode="&#xe931;" glyph-name="flag" d="M797.252 533.333l181.077 263.407c3.584 5.222 3.977 11.998 1.041 17.613-2.953 5.598-8.772 9.114-15.104 9.114h-512v68.267c0 9.438-7.629 17.067-17.067 17.067h-358.4v34.133c0 9.438-7.629 17.067-17.067 17.067s-17.067-7.629-17.067-17.067v-989.867c0-9.438 7.629-17.067 17.067-17.067s17.067 7.629 17.067 17.067v426.667h188.177c-10.837-14.302-17.51-31.915-17.51-51.2 0-47.053 38.281-85.333 85.333-85.333h631.467c6.332 0 12.151 3.516 15.104 9.114 2.953 5.615 2.543 12.407-1.041 17.613l-181.077 263.407zM76.8 874.667h341.333v-460.8h-341.333v460.8zM332.8 277.333c-28.228 0-51.2 22.972-51.2 51.2s22.972 51.2 51.2 51.2h102.4c9.438 0 17.067 7.629 17.067 17.067v392.533h479.556l-169.353-246.34c-3.994-5.82-3.994-13.517 0-19.337l169.353-246.323h-599.023z" />
<glyph unicode="&#xe932;" glyph-name="funnel" d="M1003.59 822.358c0 90.372-247.304 137.642-491.58 137.642s-491.58-47.27-491.58-137.642c0-20.489 12.801-38.717 35.315-54.723l338.286-462.872v-344.656c0-8.455 5.034-15.986 12.82-19.25l13.489-4.837 209.649 209.669v159.016l337.892 462.655c22.731 16.065 35.708 34.411 35.708 54.998zM512.010 920.674c276.071 0 452.253-58.223 452.253-98.316 0-8.298-7.944-17.363-22.318-26.526l-1.003 0.118 0.334-0.531c-55.784-35.020-211.124-71.377-429.267-71.377-218.36 0-373.797 36.416-429.424 71.476l0.334 0.531-8.101 4.817c-9.655 7.433-15.062 14.728-15.062 21.492 0 40.093 176.182 98.316 452.253 98.316zM590.663 161.95l-157.306-157.306v286.807h157.306v-129.502zM600.376 330.778h-176.713l-293.591 401.778c94.836-31.599 238.868-47.841 381.938-47.841s287.083 16.242 381.938 47.821l-293.571-401.758z" />
<glyph unicode="&#xe933;" glyph-name="newspaper" d="M529.067 686.933h-238.933v-238.933h238.933v238.933zM494.933 482.133h-170.667v170.667h170.667v-170.667zM887.467 686.933h-273.067c-9.438 0-17.067-7.629-17.067-17.067s7.629-17.067 17.067-17.067h273.067c9.438 0 17.067 7.629 17.067 17.067s-7.629 17.067-17.067 17.067zM887.467 584.533h-273.067c-9.438 0-17.067-7.629-17.067-17.067s7.629-17.067 17.067-17.067h273.067c9.438 0 17.067 7.629 17.067 17.067s-7.629 17.067-17.067 17.067zM887.467 482.133h-273.067c-9.438 0-17.067-7.629-17.067-17.067s7.629-17.067 17.067-17.067h273.067c9.438 0 17.067 7.629 17.067 17.067s-7.629 17.067-17.067 17.067zM887.467 379.733h-563.2c-9.438 0-17.067-7.629-17.067-17.067s7.629-17.067 17.067-17.067h563.2c9.438 0 17.067 7.629 17.067 17.067s-7.629 17.067-17.067 17.067zM580.267 277.333h-256c-9.438 0-17.067-7.629-17.067-17.067s7.629-17.067 17.067-17.067h256c9.438 0 17.067 7.629 17.067 17.067s-7.629 17.067-17.067 17.067zM580.267 174.933h-256c-9.438 0-17.067-7.629-17.067-17.067s7.629-17.067 17.067-17.067h256c9.438 0 17.067 7.629 17.067 17.067s-7.629 17.067-17.067 17.067zM580.267 72.533h-256c-9.438 0-17.067-7.629-17.067-17.067s7.629-17.067 17.067-17.067h256c9.438 0 17.067 7.629 17.067 17.067s-7.629 17.067-17.067 17.067zM665.6 38.4h238.933v238.933h-238.933v-238.933zM699.733 243.2h170.667v-170.667h-170.667v170.667zM1006.933 738.133c0 0.29-0.154 0.529-0.171 0.819v221.047h-819.029v-512h-170.667v-409.6c0-56.474 45.926-102.4 102.4-102.4h785.067c56.371 0 102.229 45.875 102.229 102.229v699.085c0.017 0.29 0.171 0.529 0.171 0.819zM972.629 925.867v-170.667h-750.763v170.667h750.763zM51.2 38.4v375.467h136.533v-375.467c0-37.649-30.618-68.267-68.267-68.267s-68.267 30.618-68.267 68.267zM904.533-29.867h-708.796c0.273 0.307 0.461 0.666 0.717 0.973 3.482 3.977 6.656 8.226 9.489 12.715 0.461 0.717 0.887 1.434 1.331 2.185 2.765 4.608 5.205 9.421 7.219 14.473 0.273 0.7 0.512 1.399 0.768 2.099 1.963 5.222 3.567 10.615 4.659 16.196 0.102 0.512 0.137 1.041 0.239 1.536 1.058 5.871 1.707 11.913 1.707 18.091v682.667h750.763v-682.837c0-37.547-30.549-68.096-68.096-68.096zM802.133 891.733h-409.6v-102.4h409.6v102.4zM768 823.467h-341.333v34.133h341.333v-34.133z" />
<glyph unicode="&#xe934;" glyph-name="graph" d="M1006.933 12.8v665.6h-204.8v-665.6h-51.2v529.067h-204.8v-529.067h-51.2v392.533h-204.8v-392.533h-51.2v238.933h-204.8v-238.933h-17.067c-9.421 0-17.067-7.629-17.067-17.067s7.646-17.067 17.067-17.067h989.867c9.421 0 17.067 7.629 17.067 17.067s-7.646 17.067-17.067 17.067zM68.267 12.8v204.8h136.533v-204.8h-136.533zM324.267 12.8v358.4h136.533v-358.4h-136.533zM580.267 12.8v494.933h136.533v-494.933h-136.533zM836.267 12.8v631.467h136.533v-631.467h-136.533zM137.045 485.035c2.884 0 5.837 0.734 8.516 2.287l618.991 357.376-38.741-85.163c-3.908-8.585-0.119-18.705 8.465-22.596 2.287-1.058 4.693-1.536 7.066-1.536 6.485 0 12.681 3.721 15.548 10.001l60.791 133.632c0.188 0.427 0.154 0.887 0.307 1.331 0.324 0.905 0.58 1.775 0.751 2.731 0.085 0.478 0.358 0.87 0.393 1.365 0.017 0.205-0.068 0.375-0.051 0.58 0.034 0.649-0.034 1.246-0.068 1.894-0.051 0.939-0.205 1.826-0.41 2.765-0.137 0.649-0.171 1.314-0.393 1.946-0.205 0.614-0.563 1.126-0.836 1.724-0.222 0.393-0.222 0.853-0.461 1.263s-0.649 0.649-0.922 1.041c-0.358 0.529-0.631 1.092-1.058 1.57-0.444 0.512-1.007 0.87-1.519 1.331-0.7 0.631-1.399 1.212-2.185 1.724-0.529 0.341-1.007 0.717-1.587 1.007-0.188 0.085-0.29 0.256-0.478 0.341-0.427 0.188-0.887 0.154-1.314 0.307-0.939 0.341-1.86 0.58-2.833 0.751-0.444 0.085-0.802 0.341-1.263 0.375l-146.125 14.165c-9.472 0.956-17.732-5.973-18.637-15.326-0.922-9.387 5.956-17.732 15.326-18.637l93.116-9.028-618.94-357.376c-8.175-4.71-10.957-15.155-6.246-23.313 3.157-5.478 8.892-8.533 14.797-8.533z" />
<glyph unicode="&#xe935;" glyph-name="help" d="M1005.003 309.937c0.018 0.088-0.018 0.194 0.018 0.282 12.27 43.873 18.979 90.041 18.979 137.781s-6.709 93.908-18.979 137.781c-0.018 0.088 0.018 0.194-0.018 0.282-0.035 0.141-0.141 0.23-0.177 0.353-4.608 16.366-9.993 32.38-16.137 48.040v5.809c0 6.374-3.549 11.688-8.598 14.795-6.215 13.983-12.977 27.63-20.374 40.925 3.090-2.631 6.938-4.378 11.317-4.378 9.746 0 17.655 7.892 17.655 17.655v17.249c0 9.763-7.91 17.655-17.655 17.655s-17.655-7.892-17.655-17.655v-17.249c0-1.059 0.424-1.96 0.6-2.966-1.254 2.136-2.56 4.22-3.849 6.338-0.23 0.388-0.459 0.777-0.706 1.148-1.218 1.995-2.383 4.025-3.637 6.003-0.177 0.282-0.477 0.424-0.653 0.689-11.494 18.22-24.029 35.716-37.658 52.295-0.124 0.177-0.159 0.371-0.282 0.547-3.513 4.255-7.080 8.457-10.717 12.588-0.265 0.3-0.636 0.424-0.918 0.706-14.089 15.943-29.149 30.985-45.109 45.074-0.265 0.265-0.371 0.618-0.671 0.865-4.131 3.619-8.316 7.186-12.553 10.664-0.124 0.106-0.282 0.124-0.424 0.23-16.614 13.665-34.145 26.218-52.401 37.729-0.265 0.194-0.406 0.477-0.706 0.671-1.942 1.218-3.937 2.383-5.897 3.566-0.371 0.23-0.742 0.459-1.13 0.689-2.154 1.306-4.308 2.648-6.479 3.919 1.112-0.194 2.136-0.636 3.319-0.636h17.249c9.746 0 17.655 7.892 17.655 17.655s-7.91 17.655-17.655 17.655h-17.249c-9.746 0-17.655-7.892-17.655-17.655 0-4.467 1.801-8.422 4.52-11.529-13.4 7.468-27.189 14.318-41.295 20.586-3.107 5.049-8.439 8.598-14.795 8.598h-5.809c-15.678 6.162-31.709 11.546-48.093 16.154-0.106 0.018-0.177 0.106-0.3 0.141-0.071 0.018-0.159 0-0.23 0-43.891 12.306-90.094 19.015-137.852 19.015s-93.961-6.709-137.852-19.015c-0.088-0.018-0.159 0-0.23 0-0.106-0.018-0.177-0.106-0.3-0.141-16.384-4.608-32.415-9.993-48.093-16.154h-5.809c-6.374 0-11.688-3.549-14.795-8.598-13.983-6.215-27.63-12.977-40.925-20.374 2.631 3.090 4.378 6.938 4.378 11.317 0 9.763-7.91 17.655-17.655 17.655h-17.249c-9.746 0-17.655-7.892-17.655-17.655s7.91-17.655 17.655-17.655h17.249c1.059 0 1.977 0.424 2.984 0.6-2.083-1.218-4.131-2.507-6.197-3.743-0.494-0.3-0.971-0.583-1.465-0.883-1.96-1.201-3.937-2.348-5.879-3.549-0.282-0.177-0.424-0.459-0.689-0.653-18.22-11.529-35.734-24.064-52.33-37.711-0.141-0.106-0.318-0.141-0.459-0.247-4.255-3.496-8.457-7.062-12.588-10.717-0.3-0.265-0.406-0.6-0.653-0.865-15.96-14.106-31.038-29.166-45.127-45.127-0.265-0.282-0.618-0.388-0.883-0.671-3.637-4.131-7.203-8.333-10.717-12.588-0.124-0.159-0.141-0.353-0.265-0.512-13.63-16.561-26.147-34.074-37.641-52.277-0.194-0.282-0.512-0.441-0.689-0.742-1.271-2.030-2.472-4.096-3.708-6.144-0.141-0.194-0.265-0.406-0.388-0.618-1.359-2.242-2.737-4.467-4.061-6.727 0.212 1.095 0.653 2.119 0.653 3.302v17.249c0 9.763-7.91 17.655-17.655 17.655s-17.655-7.892-17.655-17.655v-17.249c0-9.763 7.91-17.655 17.655-17.655 4.467 0 8.422 1.801 11.529 4.52-7.468-13.4-14.318-27.189-20.586-41.295-5.049-3.107-8.598-8.439-8.598-14.795v-5.809c-6.144-15.66-11.546-31.691-16.137-48.040-0.035-0.141-0.141-0.23-0.177-0.353-0.018-0.088 0.018-0.194-0.018-0.282-12.27-43.891-18.979-90.059-18.979-137.799s6.709-93.908 18.979-137.781c0.018-0.088-0.018-0.194 0.018-0.282 0.035-0.159 0.141-0.282 0.194-0.441 4.59-16.331 9.975-32.327 16.119-47.969v-5.809c0-6.374 3.549-11.688 8.598-14.795 6.215-13.983 12.977-27.63 20.374-40.925-3.090 2.631-6.956 4.378-11.317 4.378-9.746 0-17.655-7.892-17.655-17.655v-17.249c0-9.763 7.91-17.655 17.655-17.655s17.655 7.892 17.655 17.655v17.249c0 1.042-0.424 1.942-0.6 2.948 1.306-2.225 2.666-4.414 4.008-6.603 0.124-0.212 0.247-0.424 0.388-0.636 1.271-2.083 2.489-4.184 3.778-6.232 0.282-0.459 0.689-0.794 1.006-1.218 11.405-18.026 23.817-35.363 37.323-51.783 0.124-0.177 0.159-0.371 0.282-0.547 3.513-4.255 7.080-8.457 10.717-12.588 0.247-0.282 0.6-0.371 0.865-0.636 14.106-15.978 29.184-31.038 45.162-45.144 0.265-0.265 0.371-0.618 0.671-0.865 4.131-3.619 8.316-7.186 12.553-10.664 0.141-0.124 0.335-0.159 0.477-0.265 16.596-13.647 34.11-26.183 52.348-37.694 0.265-0.194 0.406-0.477 0.706-0.671 1.942-1.218 3.937-2.383 5.897-3.566 0.371-0.23 0.742-0.459 1.13-0.689 2.154-1.306 4.29-2.648 6.479-3.919-1.112 0.23-2.136 0.671-3.319 0.671h-17.249c-9.746 0-17.655-7.892-17.655-17.655s7.91-17.655 17.655-17.655h17.249c9.746 0 17.655 7.892 17.655 17.655 0 4.449-1.801 8.422-4.52 11.529 13.4-7.468 27.189-14.318 41.295-20.586 3.107-5.049 8.439-8.598 14.795-8.598h5.809c15.678-6.162 31.709-11.546 48.093-16.154 0.106-0.018 0.177-0.106 0.3-0.141s0.23-0.018 0.353-0.035c43.855-12.27 90.006-18.979 137.728-18.979s93.873 6.709 137.728 18.979c0.124 0.018 0.23 0.018 0.353 0.035 0.106 0.018 0.177 0.106 0.3 0.141 16.384 4.608 32.415 9.993 48.093 16.154h5.809c6.374 0 11.688 3.549 14.795 8.598 13.983 6.215 27.648 12.977 40.925 20.374-2.631-3.090-4.378-6.938-4.378-11.317 0-9.763 7.91-17.655 17.655-17.655h17.249c9.746 0 17.655 7.892 17.655 17.655s-7.91 17.655-17.655 17.655h-17.249c-1.059 0-1.977-0.424-2.984-0.6 2.083 1.218 4.131 2.507 6.197 3.743 0.494 0.3 0.971 0.583 1.465 0.883 1.96 1.201 3.937 2.348 5.879 3.549 0.282 0.177 0.424 0.459 0.689 0.653 18.202 11.494 35.716 24.011 52.277 37.641 0.159 0.124 0.371 0.177 0.53 0.3 4.255 3.496 8.457 7.062 12.588 10.717 0.282 0.247 0.388 0.6 0.653 0.865 15.978 14.124 31.055 29.219 45.18 45.197 0.247 0.247 0.583 0.335 0.812 0.6 3.637 4.131 7.203 8.333 10.717 12.588 0.124 0.159 0.141 0.353 0.265 0.512 13.506 16.419 25.918 33.757 37.323 51.783 0.318 0.424 0.724 0.759 1.006 1.218 1.271 2.030 2.472 4.096 3.708 6.144 0.124 0.212 0.265 0.424 0.388 0.636 1.359 2.242 2.737 4.467 4.061 6.727-0.212-1.095-0.653-2.101-0.653-3.284v-17.249c0-9.763 7.91-17.655 17.655-17.655s17.655 7.892 17.655 17.655v17.249c0 9.763-7.91 17.655-17.655 17.655-4.467 0-8.422-1.801-11.529-4.52 7.468 13.4 14.318 27.189 20.586 41.295 5.049 3.107 8.598 8.439 8.598 14.795v5.809c6.144 15.625 11.511 31.62 16.119 47.969 0.035 0.159 0.159 0.265 0.194 0.441zM919.34 200.633c-39.689-65.112-94.526-119.985-159.585-159.726-0.547-0.335-1.112-0.671-1.66-1.006-31.073-18.803-64.494-34.11-99.663-45.48l-49.24 196.961c73.322 27.878 131.566 86.122 159.444 159.444l196.961-49.24c-11.441-35.328-26.801-68.908-45.745-100.122-0.177-0.265-0.335-0.547-0.512-0.83zM265.746 40.007c-0.441 0.265-0.883 0.53-1.324 0.794-65.095 39.724-119.985 94.632-159.691 159.744-0.212 0.335-0.424 0.689-0.618 1.024-18.909 31.179-34.269 64.724-45.692 100.017l196.961 49.24c27.86-73.322 86.122-131.566 159.444-159.444l-49.24-196.961c-35.24 11.405-68.714 26.73-99.84 45.586zM104.66 695.367c39.689 65.112 94.526 119.985 159.585 159.726 0.547 0.335 1.112 0.671 1.66 1.006 31.073 18.803 64.494 34.11 99.663 45.48l49.24-196.961c-73.322-27.878-131.566-86.122-159.444-159.444l-196.961 49.24c11.441 35.328 26.801 68.908 45.745 100.122 0.177 0.265 0.335 0.547 0.512 0.83zM244.966 511.4c-4.838-20.392-7.68-41.543-7.68-63.4s2.842-43.008 7.68-63.4l-196.131-49.028c-8.775 36.070-13.524 73.693-13.524 112.428s4.749 76.359 13.524 112.428l196.131-49.028zM272.596 448c0 132.008 107.396 239.404 239.404 239.404s239.404-107.396 239.404-239.404-107.396-239.404-239.404-239.404-239.404 107.396-239.404 239.404zM758.254 855.993c0.441-0.265 0.883-0.53 1.324-0.794 65.024-39.689 119.843-94.49 159.532-159.497 0.318-0.53 0.636-1.042 0.936-1.554 18.82-31.091 34.127-64.53 45.515-99.716l-196.961-49.24c-27.86 73.322-86.122 131.566-159.444 159.444l49.24 196.961c35.257-11.423 68.732-26.748 99.858-45.603zM988.69 448c0-38.735-4.749-76.359-13.524-112.428l-196.131 49.028c4.838 20.392 7.68 41.543 7.68 63.4s-2.842 43.008-7.68 63.4l196.131 49.028c8.775-36.070 13.524-73.693 13.524-112.428zM624.428 911.166l-49.028-196.149c-20.392 4.855-41.543 7.698-63.4 7.698s-43.008-2.842-63.4-7.68l-49.028 196.149c36.070 8.739 73.693 13.506 112.428 13.506s76.359-4.767 112.428-13.524zM399.572-15.166l49.028 196.149c20.392-4.838 41.543-7.68 63.4-7.68s43.008 2.842 63.4 7.68l49.028-196.149c-36.070-8.757-73.693-13.524-112.428-13.524s-76.359 4.767-112.428 13.524zM69.879 860.442c5.155 0 10.293 2.26 13.771 6.585 2.807 3.496 5.985 6.674 9.428 9.41 7.627 6.091 8.881 17.196 2.807 24.806-6.091 7.645-17.196 8.898-24.823 2.825-5.473-4.378-10.505-9.375-14.936-14.901-6.109-7.592-4.908-18.714 2.701-24.823 3.249-2.613 7.15-3.902 11.052-3.902zM52.966 778.081c9.746 0 17.655 7.892 17.655 17.655v17.267c0 9.763-7.91 17.655-17.655 17.655s-17.655-7.892-17.655-17.655v-17.267c0-9.746 7.91-17.655 17.655-17.655zM147.226 889.379h17.249c9.746 0 17.655 7.892 17.655 17.655s-7.91 17.655-17.655 17.655h-17.249c-9.746 0-17.655-7.892-17.655-17.655s7.91-17.655 17.655-17.655zM953.379 812.774v-17.267c0-9.763 7.91-17.655 17.655-17.655s17.655 7.892 17.655 17.655v17.267c0 9.763-7.91 17.655-17.655 17.655s-17.655-7.892-17.655-17.655zM940.456 866.94c3.496-4.378 8.633-6.656 13.824-6.656 3.866 0 7.733 1.254 10.999 3.849 7.627 6.091 8.881 17.196 2.807 24.806-4.396 5.508-9.41 10.54-14.919 14.972-7.592 6.073-18.714 4.873-24.823-2.719-6.109-7.609-4.89-18.732 2.719-24.823 3.46-2.807 6.621-5.967 9.393-9.428zM859.736 889.379h17.249c9.746 0 17.655 7.892 17.655 17.655s-7.91 17.655-17.655 17.655h-17.249c-9.746 0-17.655-7.892-17.655-17.655s7.91-17.655 17.655-17.655zM940.367 28.972c-2.807-3.496-5.985-6.674-9.428-9.41-7.627-6.091-8.881-17.196-2.807-24.806 3.496-4.378 8.633-6.656 13.824-6.656 3.866 0 7.733 1.254 10.999 3.849 5.491 4.378 10.522 9.375 14.954 14.901 6.109 7.609 4.908 18.732-2.701 24.823-7.609 6.073-18.732 4.855-24.841-2.701zM876.774 6.621h-17.249c-9.746 0-17.655-7.892-17.655-17.655s7.91-17.655 17.655-17.655h17.249c9.746 0 17.655 7.892 17.655 17.655s-7.91 17.655-17.655 17.655zM971.034 117.919c-9.746 0-17.655-7.892-17.655-17.655v-17.267c0-9.763 7.91-17.655 17.655-17.655s17.655 7.892 17.655 17.655v17.267c0 9.746-7.91 17.655-17.655 17.655zM164.264 6.621h-17.249c-9.746 0-17.655-7.892-17.655-17.655s7.91-17.655 17.655-17.655h17.249c9.746 0 17.655 7.892 17.655 17.655s-7.91 17.655-17.655 17.655zM70.621 83.226v17.267c0 9.763-7.91 17.655-17.655 17.655s-17.655-7.892-17.655-17.655v-17.267c0-9.763 7.91-17.655 17.655-17.655s17.655 7.892 17.655 17.655zM83.544 29.060c-6.091 7.645-17.196 8.863-24.806 2.807-7.627-6.091-8.881-17.196-2.807-24.806 4.396-5.508 9.41-10.54 14.919-14.972 3.266-2.595 7.168-3.884 11.034-3.884 5.155 0 10.293 2.26 13.771 6.603 6.109 7.609 4.89 18.732-2.719 24.823-3.46 2.807-6.621 5.967-9.393 9.428z" />
<glyph unicode="&#xe936;" glyph-name="internet" d="M894.905 108.632c80.225 90.412 129.095 209.267 129.095 339.368 0 135.362-52.895 258.525-138.982 350.173 0 0 0 0.018 0 0.018-0.071 0.106-0.177 0.141-0.23 0.23-89.671 95.32-215.305 156.337-355.046 161.121l-0.018 0.018-9.975 0.265c-2.578 0.088-5.155 0.177-7.751 0.177s-5.173-0.088-7.751-0.177l-9.94-0.265-0.018-0.018c-139.741-4.785-265.375-65.801-355.046-161.121-0.071-0.088-0.177-0.124-0.23-0.23 0 0 0-0.018-0.018-0.035-86.104-91.63-138.999-214.793-138.999-350.155 0-130.101 48.87-248.956 129.095-339.368 0.106-0.159 0.106-0.335 0.23-0.494 0.318-0.441 0.777-0.653 1.112-1.059 90.147-100.776 219.489-165.694 363.838-170.637l0.018-0.018 9.94-0.265c2.595-0.071 5.173-0.159 7.768-0.159s5.173 0.088 7.751 0.177l9.94 0.265 0.018 0.018c144.508 4.961 273.991 70.003 364.138 170.99 0.23 0.3 0.6 0.388 0.812 0.706 0.141 0.141 0.141 0.318 0.247 0.477zM35.752 430.345h211.915c1.995-74.84 16.614-147.562 42.637-215.693-50.211-18.167-98.216-42.531-143.201-72.934-66.154 78.689-107.326 178.988-111.351 288.627zM156.743 765.387c43.926-28.566 90.695-51.447 139.476-68.537-29.873-72.51-46.398-150.687-48.552-231.194h-211.915c4.22 114.882 49.205 219.489 120.991 299.732zM988.248 465.655h-211.915c-2.154 80.508-18.679 158.685-48.552 231.194 48.781 17.090 95.55 39.971 139.476 68.537 71.786-80.243 116.771-184.85 120.991-299.732zM494.345 695.826c-51.041 1.448-101.146 9.057-149.557 22.652 35.787 73.41 86.316 139.67 149.557 194.842v-217.494zM494.345 660.515v-194.86h-211.368c2.172 76.765 18.273 151.217 47.069 220.248 53.071-15.378 108.173-23.887 164.299-25.388zM529.655 660.515c56.126 1.501 111.228 9.993 164.317 25.388 28.796-69.032 44.897-143.484 47.069-220.248h-211.385v194.86zM529.655 695.826v217.494c63.241-55.172 113.77-121.432 149.557-194.842-48.41-13.594-98.516-21.204-149.557-22.652zM713.428 729.212c-33.916 71.062-80.984 135.804-139.264 191.294 103.389-13.524 196.414-60.275 268.058-129.201-40.678-25.812-83.827-46.574-128.794-62.093zM310.572 729.212c-44.968 15.519-88.117 36.281-128.777 62.093 71.627 68.926 164.67 115.677 268.058 129.201-58.297-55.49-105.366-120.232-139.282-191.294zM282.977 430.345h211.368v-177.223c-58.386-1.554-115.588-10.664-170.567-27.207-24.841 64.53-38.806 133.473-40.801 204.429zM494.345 217.812v-235.132c-67.69 59.057-120.761 130.807-156.849 210.397 50.617 14.919 103.194 23.217 156.849 24.735zM529.655-17.32v235.132c53.654-1.501 106.231-9.816 156.849-24.717-36.087-79.607-89.159-151.358-156.849-210.414zM529.655 253.122v177.223h211.368c-1.995-70.956-15.96-139.9-40.819-204.447-54.961 16.561-112.163 25.671-170.549 27.224zM776.333 430.345h211.915c-4.025-109.639-45.18-209.938-111.351-288.627-44.985 30.402-92.99 54.766-143.201 72.934 26.041 68.131 40.642 140.853 42.637 215.693zM171.096 115.271c41.772 27.754 86.246 50.070 132.714 66.754 34.339-76.977 83.633-147.121 146.026-206.53-108.597 14.212-205.789 65.059-278.74 139.776zM574.164-24.505c62.393 59.392 111.687 129.536 146.026 206.53 46.468-16.684 90.924-39 132.714-66.754-72.951-74.717-170.143-125.564-278.74-139.776z" />
<glyph unicode="&#xe937;" glyph-name="price-tag" d="M1024 758.718l-201.754 201.282h-254.194l-100.178-99.852c-249.093 20.783-449.94-119.346-452.753-121.361-8.15-5.808-10.056-17.153-4.211-25.321 3.54-4.937 9.112-7.587 14.775-7.587 3.648 0 7.333 1.107 10.528 3.394 2.523 1.797 176.288 122.995 397.173 116.515l-433.386-432.351 456.438-457.437 182.241 181.751c37.428-19.604 80.974-29.242 124.048-29.224 63.548 0 125.881 20.656 165.197 59.973 133.722 133.74 80.647 280.441 62.496 320.066l33.562 33.49v256.663zM807.253 923.697l180.444-180.045v-226.531l-354.644-353.483c-74.131 53.148-96.693 152.872-63.403 283.636 2.487 9.711-3.394 19.604-13.105 22.072-9.747 2.596-19.585-3.394-22.072-13.105-46.994-184.547 16.155-275.558 72.588-318.505l-41.621-41.494-405.051 405.904 320.919 320.084c76.2-8.713 156.666-33.871 236.805-84.713-0.708-4.011-1.234-8.096-1.234-12.307 0-39.389 32.037-71.426 71.426-71.426s71.444 32.037 71.444 71.426-32.056 71.426-71.444 71.426c-22.072 0-41.585-10.274-54.691-26.066-74.222 46.413-148.607 72.279-219.96 83.896l69.393 69.23h224.208zM758.988 709.509c8.023-6.026 19.404-4.411 25.394 3.63 6.026 8.005 4.393 19.386-3.63 25.394-5.609 4.193-11.236 7.896-16.845 11.835 6.335 6.153 14.921 9.965 24.396 9.965 19.368 0 35.141-15.756 35.141-35.141 0-19.35-15.756-35.123-35.141-35.123-14.576 0-27.082 8.931-32.4 21.6 1.035-0.744 2.069-1.38 3.086-2.16zM51.333 393.364l83.352 83.134 405.178-406.050-83.352-83.134-405.178 406.050zM902.258 174.166c-46.758-46.722-151.928-68.032-236.514-29.424l297.231 296.451c18.061-44.943 47.285-159.007-60.717-267.027z" />
<glyph unicode="&#xe938;" glyph-name="bed" d="M904.532 567.467h-534.085c3.221 7.261 5.018 15.335 5.018 23.894v20.48c0 32.428-25.6 58.027-58.027 58.027h-122.878c-32.428 0-58.027-25.6-58.027-58.027v-20.48c0-8.558 1.797-16.631 5.018-23.894h-39.15v255.998c0 18.774-15.36 34.134-34.134 34.134h-34.134c-18.774 0-34.134-15.36-34.134-34.134v-750.932c0-18.774 15.36-34.134 34.134-34.134h34.134c18.774 0 34.134 15.36 34.134 34.134v221.867h819.199v-221.867c0-18.774 15.36-34.134 34.134-34.134h34.134c18.774 0 34.134 15.36 34.134 34.134v375.467c0 66.559-52.907 119.466-119.468 119.466zM170.666 591.361v20.48c0 13.654 10.24 23.894 23.894 23.894h122.88c13.654 0 23.894-10.24 23.894-23.894v-20.48c0-13.654-10.24-23.894-23.894-23.894h-122.88c-13.652 0-23.894 10.24-23.894 23.894zM34.134 823.466h34.134v-256.001h-34.134v256.001zM85.333 328.535c-10.24 0-17.066-6.826-17.066-17.066v-238.933h-34.134v460.798h204.799v-204.799h-153.6zM989.866 72.534h-34.134v238.933c0 10.24-6.826 17.066-17.066 17.066h-665.601v204.801h631.465c47.787 0 85.333-37.548 85.333-85.333v-375.467z" />
<glyph unicode="&#xe939;" glyph-name="menu" d="M512 960c-282.313 0-512-229.687-512-512s229.687-512 512-512 512 229.687 512 512-229.687 512-512 512zM512-27.429c-262.162 0-475.429 213.285-475.429 475.429s213.266 475.429 475.429 475.429 475.429-213.285 475.429-475.429-213.266-475.429-475.429-475.429zM731.429 667.429h-438.857c-10.112 0-18.286-8.192-18.286-18.286s8.174-18.286 18.286-18.286h438.857c10.112 0 18.286 8.192 18.286 18.286s-8.174 18.286-18.286 18.286zM731.429 466.286h-438.857c-10.112 0-18.286-8.192-18.286-18.286s8.174-18.286 18.286-18.286h438.857c10.112 0 18.286 8.192 18.286 18.286s-8.174 18.286-18.286 18.286zM731.429 265.143h-438.857c-10.112 0-18.286-8.192-18.286-18.286s8.174-18.286 18.286-18.286h438.857c10.112 0 18.286 8.192 18.286 18.286s-8.174 18.286-18.286 18.286z" />
<glyph unicode="&#xe93a;" glyph-name="notebook" d="M811.414 960h-667.181v-923.625h68.422v-100.375l68.422 45.603 68.422-45.603v100.375h461.915c37.683 0 68.353 30.67 68.353 68.353v786.919c0 37.683-30.67 68.353-68.353 68.353zM178.444 925.789h478.952v-256.701h-478.952v256.701zM657.396 361.19h-478.952v273.687h478.952v-273.687zM315.287-0.094l-34.211 22.819-34.211-22.819v36.469h68.422v-36.469zM349.498 70.586h-171.054v256.393h478.952v-256.393h-307.898zM691.607 70.586v855.204h51.316v-855.204h-51.316zM777.134 634.877h68.422v-273.687h-68.422v273.687zM845.556 104.728c0-18.833-15.326-34.142-34.142-34.142h-34.279v256.393h68.422v-222.251zM777.134 669.088v256.701h34.279c18.833 0 34.142-15.326 34.142-34.142v-222.559h-68.422z" />
<glyph unicode="&#xe93b;" glyph-name="notepad" d="M264.533 669.867h221.867c9.438 0 17.067 7.629 17.067 17.067s-7.629 17.067-17.067 17.067h-221.867c-9.438 0-17.067-7.629-17.067-17.067s7.629-17.067 17.067-17.067zM264.533 140.8h221.867c9.438 0 17.067 7.629 17.067 17.067s-7.629 17.067-17.067 17.067h-221.867c-9.438 0-17.067-7.629-17.067-17.067s7.629-17.067 17.067-17.067zM264.533 567.467h494.933c9.438 0 17.067 7.629 17.067 17.067s-7.629 17.067-17.067 17.067h-494.933c-9.438 0-17.067-7.629-17.067-17.067s7.629-17.067 17.067-17.067zM264.533 362.667h494.933c9.438 0 17.067 7.629 17.067 17.067s-7.629 17.067-17.067 17.067h-494.933c-9.438 0-17.067-7.629-17.067-17.067s7.629-17.067 17.067-17.067zM264.533 243.2h494.933c9.438 0 17.067 7.629 17.067 17.067s-7.629 17.067-17.067 17.067h-494.933c-9.438 0-17.067-7.629-17.067-17.067s7.629-17.067 17.067-17.067zM264.533 465.067h238.933c9.438 0 17.067 7.629 17.067 17.067s-7.629 17.067-17.067 17.067h-238.933c-9.438 0-17.067-7.629-17.067-17.067s7.629-17.067 17.067-17.067zM759.467 499.2h-119.467c-9.438 0-17.067-7.629-17.067-17.067s7.629-17.067 17.067-17.067h119.467c9.438 0 17.067 7.629 17.067 17.067s-7.629 17.067-17.067 17.067zM559.616 494.251c-3.243-3.226-4.949-7.492-4.949-12.117 0-4.437 1.86-8.875 4.949-12.117 3.226-3.226 7.492-4.949 12.117-4.949 4.608 0 8.875 1.877 12.117 4.949 3.072 3.243 4.949 7.509 4.949 12.117 0 4.625-1.724 8.892-4.949 12.117-6.485 6.315-17.749 6.485-24.235 0zM708.267 925.867h-102.4v17.067c0 9.438-7.629 17.067-17.067 17.067h-153.6c-9.438 0-17.067-7.629-17.067-17.067v-17.067h-324.267v-989.867h836.267v989.867h-221.867zM571.733 925.867v-51.2h-119.467v51.2h119.467zM418.133 891.733v-51.2h187.733v51.2h85.333v-68.267h-358.4v68.267h85.333zM298.667 806.4v-17.067h426.667v51.2h119.467v-819.2h-665.6v819.2h119.467v-34.133zM896-29.867h-768v921.6h170.667v-17.067h-153.6v-887.467h733.867v887.467h-153.6v17.067h170.667v-921.6z" />
<glyph unicode="&#xe93c;" glyph-name="picture" d="M1006.345 854.069h-988.69c-9.746 0-17.655-7.892-17.655-17.655v-776.828c0-9.763 7.91-17.655 17.655-17.655h988.69c9.746 0 17.655 7.892 17.655 17.655v776.828c0 9.763-7.91 17.655-17.655 17.655zM988.69 77.241h-953.379v741.517h953.379v-741.517zM282.483 463.219c54.219 0 98.322 44.103 98.322 98.304 0 54.237-44.103 98.339-98.322 98.339s-98.322-44.103-98.322-98.322c0-54.219 44.103-98.322 98.322-98.322zM282.483 624.552c34.745 0 63.011-28.284 63.011-63.011s-28.266-63.011-63.011-63.011-63.011 28.266-63.011 62.994 28.266 63.029 63.011 63.029zM123.586 147.862c4.131 0 8.298 1.448 11.652 4.396l288.009 253.564 181.884-181.866c6.903-6.903 18.061-6.903 24.964 0s6.903 18.061 0 24.964l-84.868 84.868 162.092 177.505 198.815-182.254c7.186-6.585 18.361-6.091 24.947 1.095s6.109 18.361-1.095 24.947l-211.862 194.207c-3.46 3.16-8.068 4.732-12.712 4.626-4.679-0.212-9.092-2.278-12.253-5.738l-172.915-189.387-83.738 83.738c-6.603 6.585-17.161 6.921-24.152 0.777l-300.438-264.527c-7.327-6.444-8.033-17.602-1.589-24.929 3.496-3.972 8.369-5.985 13.259-5.985z" />
<glyph unicode="&#xe93d;" glyph-name="layers" d="M844.069 551.056l179.931 102.804-511.991 290.767-512.009-290.767 179.931-102.804-179.931-102.171 179.931-102.804-179.931-102.171 512.009-292.518 511.991 292.518-179.931 102.171 179.931 102.804-179.931 102.171zM512.009 901.768l436.69-248.001-436.69-249.511-436.709 249.511 436.709 248.001zM217.553 529.571l294.456-168.229 294.456 168.229 142.234-80.779-436.69-249.511-436.709 249.511 142.253 80.779zM948.7 243.817l-436.69-249.511-436.709 249.511 142.253 80.779 294.456-168.229 294.456 168.229 142.234-80.779z" />
<glyph unicode="&#xe93e;" glyph-name="settings" d="M971.283 561.778h-95.801c-15.398 0-28.084 8.476-33.982 22.699s-2.901 29.203 7.964 40.088l67.736 67.717c9.956 9.956 15.436 23.211 15.436 37.281 0 14.089-5.48 27.326-15.436 37.3l-86.338 86.338c-19.911 19.911-54.632 19.949-74.581 0l-67.717-67.717c-10.885-10.866-25.903-13.9-40.088-7.983-14.222 5.897-22.699 18.584-22.699 33.982v95.801c0 29.070-23.647 52.717-52.717 52.717h-122.121c-29.070 0-52.717-23.647-52.717-52.717v-95.801c0-15.398-8.476-28.084-22.699-33.982-14.184-5.935-29.203-2.882-40.088 7.983l-67.717 67.717c-19.949 19.949-54.67 19.911-74.581 0l-86.338-86.338c-9.956-9.956-15.436-23.211-15.436-37.3 0-14.071 5.48-27.307 15.436-37.281l67.736-67.717c10.866-10.885 13.843-25.865 7.964-40.088s-18.584-22.699-33.982-22.699h-95.801c-29.070 0-52.717-23.647-52.717-52.717v-122.103c0-29.089 23.647-52.736 52.717-52.736h95.801c15.398 0 28.084-8.476 33.982-22.699s2.901-29.203-7.964-40.088l-67.736-67.717c-9.956-9.956-15.436-23.211-15.436-37.281 0-14.089 5.48-27.326 15.436-37.3l86.338-86.338c19.93-19.93 54.632-19.968 74.581 0l67.717 67.736c10.885 10.866 25.847 13.862 40.088 7.964 14.222-5.897 22.699-18.584 22.699-33.982v-95.801c0-29.070 23.647-52.717 52.717-52.717h122.103c29.070 0 52.717 23.647 52.717 52.717v95.801c0 15.398 8.476 28.084 22.699 33.982 14.241 5.916 29.203 2.901 40.088-7.964l67.717-67.736c19.949-19.949 54.67-19.911 74.581 0l86.338 86.338c9.956 9.956 15.436 23.211 15.436 37.3 0 14.071-5.48 27.307-15.436 37.281l-67.736 67.717c-10.866 10.885-13.843 25.865-7.964 40.088s18.603 22.699 34.001 22.699h95.801c29.070 0 52.717 23.647 52.717 52.717v122.121c0 29.070-23.647 52.717-52.717 52.717zM986.074 386.939c0-8.154-6.637-14.791-14.791-14.791h-95.801c-30.796 0-57.249-17.673-69.025-46.118-11.795-28.444-5.594-59.657 16.194-81.427l67.736-67.717c5.784-5.784 5.784-15.17 0-20.935l-86.338-86.338c-5.765-5.765-15.151-5.803-20.935 0l-67.717 67.736c-21.788 21.788-52.983 27.951-81.427 16.194-28.444-11.776-46.118-38.229-46.118-69.025v-95.801c0-8.154-6.637-14.791-14.791-14.791h-122.121c-8.154 0-14.791 6.637-14.791 14.791v95.801c0 30.796-17.673 57.249-46.118 69.025-9.538 3.963-19.361 5.897-29.070 5.897-19.228 0-37.869-7.585-52.357-22.073l-67.717-67.736c-5.803-5.803-15.189-5.765-20.935 0l-86.338 86.338c-5.784 5.784-5.784 15.17 0 20.935l67.736 67.717c21.769 21.769 27.989 52.983 16.194 81.427-11.776 28.425-38.229 46.099-69.025 46.099h-95.801c-8.154 0-14.791 6.637-14.791 14.791v122.121c0 8.154 6.637 14.791 14.791 14.791h95.801c30.796 0 57.249 17.673 69.025 46.118 11.795 28.444 5.594 59.657-16.194 81.427l-67.736 67.717c-5.784 5.784-5.784 15.17 0 20.935l86.338 86.338c5.765 5.784 15.151 5.784 20.935 0l67.717-67.717c21.751-21.751 52.945-27.989 81.427-16.194 28.444 11.757 46.118 38.21 46.118 69.006v95.801c0 8.154 6.637 14.791 14.791 14.791h122.103c8.173 0 14.81-6.637 14.81-14.791v-95.801c0-30.796 17.673-57.249 46.118-69.025 28.482-11.795 59.657-5.575 81.427 16.194l67.717 67.717c5.803 5.784 15.189 5.784 20.935 0l86.338-86.338c5.784-5.784 5.784-15.17 0-20.935l-67.736-67.717c-21.769-21.769-27.989-52.983-16.194-81.427 11.776-28.444 38.229-46.118 69.025-46.118h95.801c8.154 0.019 14.791-6.618 14.791-14.772v-122.121zM512 618.667c-94.113 0-170.667-76.553-170.667-170.667s76.553-170.667 170.667-170.667 170.667 76.553 170.667 170.667-76.553 170.667-170.667 170.667zM512 315.259c-73.178 0-132.741 59.563-132.741 132.741s59.563 132.741 132.741 132.741 132.741-59.563 132.741-132.741-59.563-132.741-132.741-132.741z" />
<glyph unicode="&#xe93f;" glyph-name="shuffle" d="M556.298 674.64h185.433v-184.691l282.27 205.294-282.27 205.294v-184.691h-185.433c-147.687 0-267.847-120.16-267.847-267.847 0-124.961-101.679-226.64-226.64-226.64h-41.207c-11.394 0-20.604-9.21-20.604-20.604s9.21-20.604 20.604-20.604h41.207c147.687 0 267.847 120.16 267.847 267.847 0 124.961 101.679 226.64 226.64 226.64zM782.938 819.607l171.010-124.363-171.010-124.363v248.727zM20.604 674.64h41.207c55.898 0 109.57-20.48 151.148-57.67 3.935-3.523 8.86-5.254 13.743-5.254 5.645 0 11.291 2.308 15.35 6.861 7.582 8.489 6.861 21.51-1.607 29.092-49.14 43.968-112.578 68.177-178.633 68.177h-41.207c-11.394 0-20.604-9.21-20.604-20.604s9.21-20.604 20.604-20.604zM741.73 221.36h-185.433c-55.321 0-108.581 20.109-149.953 56.619-8.468 7.52-21.51 6.737-29.072-1.834-7.52-8.53-6.717-21.551 1.834-29.072 48.913-43.165 111.857-66.921 177.212-66.921h185.433v-184.691l282.27 205.294-282.29 205.294v-184.691zM782.938 325.12l171.010-124.363-171.010-124.363v248.727z" />
<glyph unicode="&#xe940;" glyph-name="right-double-chevron" d="M407.732 960l-53.402-53.226 457.281-458.774-457.281-458.774 53.402-53.226 510.334 512zM159.334 960l-53.402-53.226 457.281-458.774-457.281-458.774 53.402-53.226 510.334 512z" />
</font>
</defs>
</svg>
